<svg id="Layer_1" data-name="Layer 1" xmlns="http://www.w3.org/2000/svg" viewBox="0 0 165.46 281.11"><defs><style>.cls-1{fill:#231f20;}.cls-2{fill:#fff;}.cls-3,.cls-4,.cls-5,.cls-6,.cls-7,.cls-8{fill:none;stroke:#231f20;stroke-miterlimit:10;}.cls-4{stroke-dasharray:1.83 1.83;}.cls-5{stroke-dasharray:2.19 2.19;}.cls-6{stroke-dasharray:2.31 2.31;}.cls-7{stroke-dasharray:2.05 2.05;}.cls-8{stroke-width:0.75px;}</style></defs><path class="cls-1" d="M257.75,270.48a38.2,38.2,0,0,1,10.62,12,112.31,112.31,0,0,1,6,13.73,85.73,85.73,0,0,0,6,13.09c2.95,4.91,7,9,10.11,13.84a42.49,42.49,0,0,1,6.4,18.13c.09.79,1.34.8,1.25,0a44.4,44.4,0,0,0-4.92-16c-2.85-5.32-7.07-9.63-10.45-14.59-5.85-8.58-8.06-18.94-12.9-28a40,40,0,0,0-11.52-13.29c-.64-.48-1.26.6-.63,1.08Z" transform="translate(-153.23 -134.38)"/><path class="cls-1" d="M238.73,290.52c5.35-2.52,11.15-4.61,17.15-4.39s11.28,3.06,16.3,6.07a158.4,158.4,0,0,1,26.17,19.7,160.68,160.68,0,0,1,12.89,13.47c.53.62,1.41-.27.89-.88a160,160,0,0,0-38.95-33.14c-4.93-3-10.11-5.83-15.95-6.39-6.67-.63-13.19,1.68-19.13,4.48-.73.34-.1,1.42.63,1.08Z" transform="translate(-153.23 -134.38)"/><path class="cls-2" d="M233.29,303.24c8.85,7.61,20.66,8,31.66,6.37a104.3,104.3,0,0,0,18.26-4.42,69.23,69.23,0,0,0,16.05-7.3,26.68,26.68,0,0,0,9.15-9.35c2.6-4.89,2.72-10.49,1.43-15.79-2.37-9.81-8.68-18.69-15.53-25.91a102.16,102.16,0,0,0-12.61-11.08c-1.18-.89-2.39-1.76-3.6-2.61l-1.88-1.28a5.17,5.17,0,0,1-1.41-1,1.53,1.53,0,0,1,1.51-2.41,11,11,0,0,1,2.89,1.83q1.85,1.26,3.65,2.59c2.25,1.65,4.44,3.4,6.56,5.23a93.74,93.74,0,0,1,11.35,11.54c6.46,7.87,12.38,17.88,12.87,28.28.43,9-4.07,16.45-11.35,21.57a63.62,63.62,0,0,1-14.48,7.28,114.39,114.39,0,0,1-18,5.09c-11.13,2.18-23.46,2.94-33.67-2.86a27.92,27.92,0,0,1-6-4.56c-2.29-2.26-5.83,1.27-3.54,3.54,8.68,8.59,21.08,11.19,32.92,10.32a106.84,106.84,0,0,0,36.86-9.71c8.78-4.08,16.95-10.22,20.55-19.5,4.2-10.82.27-22.87-5.25-32.44a89.29,89.29,0,0,0-21.32-24.26q-3.64-3-7.51-5.66c-2.26-1.58-4.56-3.55-7.5-3.23a6.51,6.51,0,0,0-5.79,5.8c-.33,3.13,1.53,5.17,3.95,6.78,9.14,6.11,17.74,13.5,24.05,22.58a50.06,50.06,0,0,1,6.78,13c1.6,4.95,2,10.46-.52,14.84-2.08,3.62-5.63,6.33-9.33,8.44a77.89,77.89,0,0,1-16.86,6.76,90.31,90.31,0,0,1-18.71,3.59,36.63,36.63,0,0,1-15.39-1.69,21.77,21.77,0,0,1-6.7-3.9,2.56,2.56,0,0,0-3.54,0,2.51,2.51,0,0,0,0,3.53Z" transform="translate(-153.23 -134.38)"/><path class="cls-1" d="M240.57,243.85a258.69,258.69,0,0,1,44.57-67q7.65-8.33,16-15.93c2.38-2.18-1.16-5.7-3.54-3.54a261.63,261.63,0,0,0-50.85,63.52q-5.72,10-10.53,20.48a2.58,2.58,0,0,0,.9,3.42,2.51,2.51,0,0,0,3.42-.9Z" transform="translate(-153.23 -134.38)"/><path class="cls-2" d="M276,231.42a3.55,3.55,0,0,1-1.7-.82c-.91-.59-1.83-1.16-2.75-1.74q-2.49-1.53-5-3c-3.45-2-7-3.88-10.49-5.72-7.11-3.71-14.32-7.23-21.42-11-14.1-7.42-28.31-16.26-44.64-17.23a41.72,41.72,0,0,0-10.58.71c-1.08.22-2.53,1-3.49.32a1.5,1.5,0,0,1-.46-2c.59-1,2.33-1.11,3.42-1.34a39.47,39.47,0,0,1,4.72-.69,49.91,49.91,0,0,1,10.65.29c15.91,2.17,29.71,11,43.69,18.23,7,3.66,14.17,7.14,21.19,10.85,3.52,1.86,7,3.77,10.44,5.79,1.75,1,3.49,2.08,5.21,3.17.87.55,2.49,1.22,2.72,2.25a1.54,1.54,0,0,1-1.49,1.83c-3.2.15-3.22,5.15,0,5a6.6,6.6,0,0,0,6.3-8.13,7.45,7.45,0,0,0-3.62-4.38c-1.84-1.19-3.71-2.34-5.59-3.46-7.4-4.4-15.08-8.31-22.76-12.2s-15.46-8.06-23.17-12.12-15.8-7.93-24.33-10.17a55.79,55.79,0,0,0-24.31-1.27,14.16,14.16,0,0,0-5.3,1.62,6.5,6.5,0,0,0,3.93,11.93c1.86-.14,3.66-.84,5.51-1.08a37.71,37.71,0,0,1,5.42-.27A48.36,48.36,0,0,1,200,198.66c8.51,2.29,16.37,6.4,24.09,10.54s15.59,8.19,23.44,12.19,15.39,7.92,22.71,12.53c1.88,1.18,3.49,2.39,5.79,2.5C279.22,236.57,279.21,231.57,276,231.42Z" transform="translate(-153.23 -134.38)"/><path class="cls-1" d="M274.75,232.08c11.2,7.37,21.63,16.5,28.58,28.11,3.55,5.93,6.55,12.71,6.35,19.76-.19,6.38-3.72,11.66-8.66,15.48-5.18,4-11.45,6.55-17.61,8.65a99.88,99.88,0,0,1-22.84,5.1c-7.18.67-14.76.28-21.28-3.07-5.63-2.89-10-7.57-11.54-13.81-1.68-6.93.07-14.28,2.14-20.93a221.9,221.9,0,0,1,8.27-22.08c.78-1.82,1.59-3.63,2.41-5.44a2.58,2.58,0,0,0-.89-3.42,2.54,2.54,0,0,0-3.43.9c-3.58,7.84-6.81,15.84-9.62,24-2.56,7.43-5,15.33-4.45,23.29a25.65,25.65,0,0,0,10.15,19c6.08,4.64,13.67,6.6,21.22,6.82,8.52.23,17.21-1.45,25.38-3.74,7.33-2.05,14.78-4.7,21.3-8.7,5.84-3.58,11-8.53,13.25-15.13,2.65-7.7.6-16.1-2.68-23.25-6.18-13.47-17.11-24.24-29-32.76-1.49-1.06-3-2.09-4.52-3.1-2.7-1.77-5.2,2.56-2.52,4.32Z" transform="translate(-153.23 -134.38)"/><path class="cls-1" d="M177.43,194.17c13.55-3.64,27.5,1,39.66,6.91,6.26,3.07,12.32,6.52,18.5,9.74s12.43,6.3,18.62,9.51a234.18,234.18,0,0,1,20.54,11.75c2.7,1.77,5.21-2.56,2.52-4.32-12.07-7.88-25.14-14-37.92-20.61s-25.2-14.51-39.33-17.76a49.39,49.39,0,0,0-23.92,0c-3.1.83-1.79,5.66,1.33,4.82Z" transform="translate(-153.23 -134.38)"/><path class="cls-1" d="M243.57,354.32c-12,13.73-25.19,27-41,36.4a92.36,92.36,0,0,1-13.42,6.62,2.59,2.59,0,0,0-1.75,3.08,2.53,2.53,0,0,0,3.08,1.75c17.48-6.86,32.25-18.76,45.28-32.06,3.9-4,7.67-8.07,11.33-12.26a2.55,2.55,0,0,0,0-3.53,2.51,2.51,0,0,0-3.53,0Z" transform="translate(-153.23 -134.38)"/><path class="cls-2" d="M257.68,401.26c-1-.05-2.06-1.07-2.87-1.61l-3.38-2.29q-4.63-3.18-9.21-6.45c-8.12-5.84-16.09-11.9-23.77-18.3-2.09-1.75-4.17-3.53-6.21-5.33-.6-.52-1.26-1-1.3-1.75a1.55,1.55,0,0,1,.82-1.42,1.48,1.48,0,0,1,1.53.1,21.74,21.74,0,0,1,2.77,2.41q3.09,2.67,6.24,5.25c7.69,6.3,15.63,12.29,23.73,18q4.68,3.34,9.46,6.56a36,36,0,0,1,3.08,2.07,1.51,1.51,0,0,1-.89,2.72c-3.2.14-3.22,5.14,0,5a6.61,6.61,0,0,0,6.36-5.19,6.69,6.69,0,0,0-3-6.89c-2.49-1.72-5-3.36-7.51-5.09-8.5-5.89-16.84-12-24.9-18.5q-3.52-2.82-7-5.73-1.74-1.47-3.44-3a11.36,11.36,0,0,0-3.76-2.61c-5.79-1.91-10.91,5-7.31,9.93a19.49,19.49,0,0,0,3.25,3.1q1.82,1.57,3.64,3.1c2.36,2,4.74,3.93,7.15,5.85q6.78,5.4,13.77,10.53,6.24,4.57,12.61,9,2.26,1.56,4.55,3.09c1.76,1.18,3.33,2.29,5.55,2.4C260.9,406.41,260.89,401.41,257.68,401.26Z" transform="translate(-153.23 -134.38)"/><path class="cls-2" d="M275.18,273.48c2.54,7.72,2.77,16.09,1.86,24.11a82.91,82.91,0,0,1-7.1,24.81,115.42,115.42,0,0,1-7.37,13.51c-1.72,2.73,2.61,5.24,4.32,2.52,9.66-15.33,16.28-33.17,15.57-51.51A54,54,0,0,0,280,272.15c-1-3-5.83-1.74-4.82,1.33Z" transform="translate(-153.23 -134.38)"/><path class="cls-2" d="M260.23,334c8.6-13.71,14.67-29.58,14.26-46a48.92,48.92,0,0,0-1.78-12.39c-.9-3.08-5.72-1.77-4.82,1.33a50.71,50.71,0,0,1,1.1,20.59,76.06,76.06,0,0,1-6.51,21.9,107.48,107.48,0,0,1-6.57,12c-1.72,2.73,2.61,5.24,4.32,2.52Z" transform="translate(-153.23 -134.38)"/><path class="cls-1" d="M214.21,363.69c-6.68-5.95-13.34-12.21-18.72-19.39-5-6.65-7.92-14.27-10-22.29-1.14-4.48-2.29-9.14-2.3-13.79s1.66-8.5,4.14-12.24c5-7.5,12.15-12.65,20-16.81,8.39-4.44,17-8.53,25.83-12.11a109.44,109.44,0,0,1,13.12-4.67c4-1.06,8.35-1.73,12.46-.77,7.18,1.7,11.23,8.13,13.11,14.84,2.27,8.11,2,17,.46,25.23-3.35,17.88-13,33.67-24.47,47.53-1.42,1.72-2.87,3.42-4.33,5.1a2.54,2.54,0,0,0,0,3.53,2.51,2.51,0,0,0,3.53,0c12.69-14.54,24.09-30.83,29-49.76a69.92,69.92,0,0,0,1.64-28.53c-1.26-7.66-4.64-15.55-11.27-20-8.05-5.43-18.34-3.29-26.86-.26a268.31,268.31,0,0,0-28.17,12.27c-8.66,4.26-17.32,8.8-23.85,16.1a40.62,40.62,0,0,0-7.81,12.15c-1.88,4.81-1.69,9.94-.87,14.95a99.45,99.45,0,0,0,3.47,14.31,62.37,62.37,0,0,0,5.41,12.7c4.48,7.63,10.86,14.18,17.23,20.24,1.86,1.78,3.76,3.51,5.69,5.22,2.39,2.13,5.94-1.39,3.53-3.53Z" transform="translate(-153.23 -134.38)"/><path class="cls-1" d="M259,397.6c-11.73-7.76-23.14-16.05-34.07-24.89q-5.43-4.4-10.67-9c-2.4-2.13-6,1.39-3.53,3.53a403.23,403.23,0,0,0,37.44,29.06q4.13,2.87,8.3,5.63c2.7,1.78,5.2-2.54,2.53-4.31Z" transform="translate(-153.23 -134.38)"/><path class="cls-2" d="M236.37,254.28q-2.7,6.69-5,13.53a79.42,79.42,0,0,0-3.4,12.48,30.26,30.26,0,0,0,.09,12,19.54,19.54,0,0,0,6.16,10c1.19,1.07,3-.69,1.76-1.77a17.36,17.36,0,0,1-5.68-9.72,29.74,29.74,0,0,1,.4-11.62c1.69-8.33,4.94-16.45,8.12-24.3.6-1.49-1.81-2.14-2.41-.67Z" transform="translate(-153.23 -134.38)"/><path class="cls-2" d="M229.25,305.31c-6.81-6.94-8.36-16.4-6.79-25.72,1.61-9.57,5.35-18.88,9-27.83.61-1.49-1.81-2.14-2.41-.67a173.69,173.69,0,0,0-8,23.23c-1.77,7.19-2.53,14.94-.14,22.08a28,28,0,0,0,6.61,10.68c1.13,1.15,2.9-.62,1.77-1.77Z" transform="translate(-153.23 -134.38)"/><path class="cls-2" d="M235.59,291.8c-10.67,5.51-21.08,11.61-31.23,18A264.74,264.74,0,0,0,177,329c-8.45,7-16,15.39-19.69,25.9-3.15,9.08-2.89,19,2,27.46A38.48,38.48,0,0,0,180.11,399c1.13.39,2.29.73,3.45,1a5.36,5.36,0,0,1,.75.18c.4,1-.83.57-1,.52-.67-.17-1.33-.35-2-.55a41.73,41.73,0,0,1-6.9-2.8,39.83,39.83,0,0,1-11.11-8.4,32.5,32.5,0,0,1-8.59-26.06c1.36-11.39,7.83-21.31,15.88-29.17s17.53-14.2,26.88-20.36c10-6.56,20.23-12.67,30.69-18.42,2.53-1.4,5.06-2.78,7.63-4.1.72-.37.09-1.44-.63-1.08-10.94,5.6-21.59,11.87-32,18.43-9.68,6.12-19.39,12.48-28.17,19.85s-16.37,16.19-19.88,27.18c-3,9.32-2.51,19.39,2.39,27.95a40.27,40.27,0,0,0,21,17.34c1.17.44,2.36.82,3.57,1.16.85.23,2,.75,2.87.36a1.63,1.63,0,0,0,.87-2c-.35-1-1.38-1.06-2.24-1.29A39.69,39.69,0,0,1,170,392.35c-7.81-5.72-13.29-14.55-13.57-24.36-.33-11.65,5.61-22.41,13.41-30.67S187.45,322.43,197,316.1c10.13-6.74,20.58-13,31.23-18.9,2.66-1.47,5.32-2.93,8-4.32.71-.37.08-1.45-.63-1.08Z" transform="translate(-153.23 -134.38)"/><path class="cls-1" d="M184.42,400a39.72,39.72,0,0,1-23-14.8c-6.1-8.34-7.4-18.68-4.45-28.5,3.16-10.57,10.39-19.16,18.63-26.23,8.7-7.46,18.45-13.81,28.11-19.94q8.41-5.34,17.08-10.29c5.87-3.38,11.79-6.78,17.91-9.7.72-.35.09-1.42-.63-1.08-5.7,2.72-11.2,5.87-16.68,9s-10.67,6.21-15.9,9.49c-10.12,6.32-20.26,12.91-29.45,20.53-8.48,7-16,15.54-19.69,26.09-3.37,9.65-2.93,20.25,2.5,29.06,5.53,9,15,15.21,25.21,17.58.78.18,1.11-1,.33-1.2Z" transform="translate(-153.23 -134.38)"/><path class="cls-2" d="M254.64,267.88c-6.91-5.08-13-11.09-18.92-17.24-2.85-2.95-5.81-5.86-8-9.34A30.67,30.67,0,0,1,223.57,230a81.39,81.39,0,0,1-.92-11.56c-.11-4.21-.25-8.43,0-12.64a46.43,46.43,0,0,1,2.62-13,110.86,110.86,0,0,1,4.49-10.25L239,163.35c2.1-4.37,4-9,7.47-12.51,2.8-2.87,6.34-4.85,9.84-6.73A94.63,94.63,0,0,1,267,139c7.63-3,16.13-4.69,24.16-2.28,6.72,2,13.46,7.91,11.82,15.65a8.77,8.77,0,0,1-.35,1.24,2.68,2.68,0,0,1-.27.7c-.24.31,0,.51-.44,0s-.13-.6,0-1.1a9.27,9.27,0,0,0,.34-1.38,10.78,10.78,0,0,0-.27-4.59,13.43,13.43,0,0,0-6.19-7.69c-6.15-3.76-13.88-3.86-20.73-2.33-7.53,1.69-14.65,5.2-21.29,9a27.45,27.45,0,0,0-8.56,7.06,48.06,48.06,0,0,0-4.63,8.22q-4.63,9.66-9.28,19.34a103,103,0,0,0-6.18,14.47c-2.41,8-2,16.5-1.71,24.74.26,7.52,1.07,15.33,5.49,21.67a73.42,73.42,0,0,0,7.81,8.82c3,3.1,6,6.18,9.2,9.11a106.41,106.41,0,0,0,9.23,7.6c.65.48,1.28-.6.63-1.08-7.06-5.19-13.21-11.37-19.29-17.67-2.92-3-5.95-6.06-8-9.79a32.32,32.32,0,0,1-3.36-11.63c-.45-3.88-.52-7.79-.61-11.69A85.12,85.12,0,0,1,225,202c.93-6.89,3.87-13.12,6.85-19.32l9.61-20c1-2,1.89-4,3-5.87a24.42,24.42,0,0,1,8.69-8.68c6.84-4.18,14.42-7.9,22.27-9.65,7.19-1.61,16.06-1.42,21.88,3.74,2.92,2.58,4.71,6.67,3.49,10.54-.35,1.11-1.15,2.53.34,3.22s2.21-.73,2.63-1.85c2.5-6.79-2-13.66-7.9-16.81-6.56-3.51-14.39-3.57-21.5-1.93-7.73,1.78-15.09,5.39-21.91,9.37a28.89,28.89,0,0,0-8.85,7.45,49.9,49.9,0,0,0-4.79,8.49q-4.71,9.79-9.41,19.6c-2.36,4.92-4.83,9.84-6.34,15.1-2.35,8.21-1.92,16.94-1.6,25.38.3,7.75,1.3,15.71,5.88,22.22a76.08,76.08,0,0,0,7.95,9c3,3.13,6.08,6.24,9.28,9.2A109.21,109.21,0,0,0,254,269c.65.48,1.27-.6.63-1.08Z" transform="translate(-153.23 -134.38)"/><path class="cls-1" d="M302.38,154.87c2.62-5.5,0-11.67-4.6-15.14-5.21-3.9-12.22-4.88-18.54-4.16-6.78.78-13.22,3.33-19.29,6.35s-12.33,6.18-16.22,11.88a72.09,72.09,0,0,0-5,9.48l-5.11,10.63c-3.14,6.55-6.7,13.07-9,20-2.38,7.14-2.46,14.61-2.27,22,.17,6.8.24,13.86,2.62,20.33,2.68,7.3,8.7,12.67,14,18.08,2.94,3,5.94,5.9,9.11,8.64s6.39,5,9.65,7.48c.65.49,1.27-.6.63-1.08-2.86-2.15-5.78-4.21-8.52-6.53s-5.09-4.53-7.51-6.92-4.9-4.95-7.32-7.46a50.94,50.94,0,0,1-6.46-7.68c-3.54-5.56-4.45-12.2-4.77-18.67-.35-6.83-.7-13.87.29-20.66s4-13.18,7-19.42l9.35-19.47a58.45,58.45,0,0,1,4.63-8.52,25,25,0,0,1,7.59-6.77,85.72,85.72,0,0,1,18.17-8.57c6.88-2.23,14.43-3.11,21.36-.58a16.24,16.24,0,0,1,8.17,6,10.4,10.4,0,0,1,.95,10c-.34.73.74,1.36,1.08.64Z" transform="translate(-153.23 -134.38)"/><line class="cls-3" x1="91.5" y1="281.08" x2="91.57" y2="280.08"/><line class="cls-4" x1="91.7" y1="278.26" x2="92.39" y2="268.22"/><polyline class="cls-3" points="92.46 267.31 92.53 266.31 93.48 266.6"/><line class="cls-5" x1="95.59" y1="267.22" x2="107.15" y2="270.64"/><polyline class="cls-3" points="108.2 270.95 109.16 271.24 109.16 270.24"/><line class="cls-6" x1="109.16" y1="267.92" x2="109.16" y2="259.83"/><polyline class="cls-3" points="109.16 258.68 109.16 257.68 110.16 257.77"/><line class="cls-7" x1="112.19" y1="257.98" x2="123.4" y2="259.08"/><line class="cls-3" x1="124.42" y1="259.18" x2="125.41" y2="259.28"/><line class="cls-3" x1="8.89" y1="42.59" x2="9.87" y2="42.77"/><line class="cls-4" x1="11.67" y1="43.1" x2="21.57" y2="44.91"/><polyline class="cls-3" points="22.46 45.07 23.45 45.25 23.06 46.17"/><line class="cls-5" x1="22.21" y1="48.19" x2="17.52" y2="59.3"/><polyline class="cls-3" points="17.09 60.31 16.7 61.23 17.7 61.34"/><line class="cls-6" x1="20" y1="61.6" x2="28.04" y2="62.5"/><polyline class="cls-3" points="29.18 62.63 30.18 62.74 29.97 63.72"/><line class="cls-7" x1="29.54" y1="65.72" x2="27.19" y2="76.74"/><line class="cls-3" x1="26.98" y1="77.74" x2="26.77" y2="78.72"/><polyline class="cls-8" points="154.91 195.71 162.05 194.47 163 185.39"/><polyline class="cls-3" points="139.8 209.29 146.17 211.58 150.6 206.91"/></svg>