<svg id="Layer_1" data-name="Layer 1" xmlns="http://www.w3.org/2000/svg" viewBox="0 0 352.14 570.05"><defs><style>.cls-1{fill:#231f20;}.cls-2,.cls-3{fill:#fff;}.cls-3,.cls-4,.cls-5{stroke:#231f20;stroke-miterlimit:10;stroke-width:2px;}.cls-4,.cls-5{fill:none;}.cls-4{stroke-dasharray:3;}.cls-5{stroke-dasharray:3 3;}</style></defs><path class="cls-1" d="M254.13,316.52c-6.66.47-13.3,1.11-19.91,2a5.49,5.49,0,0,0-3.54,1.46,5,5,0,0,0,0,7.07,4.78,4.78,0,0,0,3.54,1.47c6.61-.88,13.25-1.52,19.91-2,2.6-.18,5.12-2.17,5-5-.12-2.55-2.21-5.2-5-5Z" transform="translate(-124.42 -216.15)"/><path class="cls-2" d="M250.85,331.27l-1.51-15.44-.21-2.25-5,5,4-.39-5-5,1.5,15.44.22,2.25,5-5-4,.39a5.42,5.42,0,0,0-3.54,1.46,5.05,5.05,0,0,0-1.46,3.54c.11,2.49,2.21,5.27,5,5l4-.39a5.26,5.26,0,0,0,3.53-1.47,4.84,4.84,0,0,0,1.47-3.53l-1.5-15.44-.22-2.25a5.28,5.28,0,0,0-1.47-3.53,4.87,4.87,0,0,0-3.53-1.47l-4,.39a5.31,5.31,0,0,0-3.54,1.47,4.83,4.83,0,0,0-1.46,3.53l1.5,15.44.22,2.25a5.39,5.39,0,0,0,1.46,3.53,5.11,5.11,0,0,0,3.54,1.47C248.34,336.15,251.12,334.05,250.85,331.27Z" transform="translate(-124.42 -216.15)"/><path class="cls-1" d="M282.75,329.84a178.26,178.26,0,0,0,.6-18.78,5,5,0,0,0-10,0,178.26,178.26,0,0,1-.6,18.78c-.26,2.61,2.49,5.11,5,5a5.14,5.14,0,0,0,5-5Z" transform="translate(-124.42 -216.15)"/><path class="cls-2" d="M274.51,322.74l-.13-4-5,5c15.67-.53,31.45-.62,47.12-.07l-5-5-.14,4,5-5c-15.59-.55-31.26-.46-46.85.07a5,5,0,0,0,0,10c15.59-.53,31.26-.62,46.85-.07a5.08,5.08,0,0,0,5-5l.14-4a5.08,5.08,0,0,0-5-5c-15.67-.55-31.45-.46-47.12.07a5.06,5.06,0,0,0-5,5l.13,4a5,5,0,0,0,10,0Z" transform="translate(-124.42 -216.15)"/><path class="cls-1" d="M355.49,326.25c-11-8.39-25.65-10.07-39.06-10.58a5,5,0,0,0-5,5,5.1,5.1,0,0,0,5,5c3.22.12,6.44.31,9.64.66l1.25.14c.27,0,1.53.18.33,0,.76.1,1.51.22,2.27.34,1.56.26,3.11.56,4.66.92s2.89.73,4.32,1.18c.77.24,1.53.5,2.29.78l1.12.44c1,.38-.78-.38.28.11a41.34,41.34,0,0,1,7.86,4.62c2.09,1.59,5.68.39,6.84-1.8,1.39-2.64.43-5.14-1.8-6.84Z" transform="translate(-124.42 -216.15)"/><path class="cls-2" d="M341.05,333.9l-4-.53,5,5a154.78,154.78,0,0,0,1.3-23.67l-5,5,4-.09-5-5a159.05,159.05,0,0,1-1.32,24.29c-.34,2.6,2.54,5.11,5,5,3-.14,4.63-2.21,5-5a159.05,159.05,0,0,0,1.32-24.29,5.07,5.07,0,0,0-5-5l-4,.09a5.07,5.07,0,0,0-5,5,154.78,154.78,0,0,1-1.3,23.67,5,5,0,0,0,1.47,3.53,5.89,5.89,0,0,0,3.53,1.47l4,.53c2.6.35,5.11-2.55,5-5C345.92,335.89,343.84,334.27,341.05,333.9Z" transform="translate(-124.42 -216.15)"/><path class="cls-1" d="M239.39,548.22a212.64,212.64,0,0,1,9,29.84,5,5,0,0,0,6.15,3.49A5.11,5.11,0,0,0,258,575.4a210,210,0,0,0-9-29.84c-1-2.42-3.39-4.38-6.15-3.49-2.35.76-4.52,3.54-3.49,6.15Z" transform="translate(-124.42 -216.15)"/><path class="cls-2" d="M238.22,562.29l-.57-4-3.49,6.15q17.88-2.58,35.6-6.18l-6.15-3.5.8,3.92,3.49-6.15q-17.82,3.63-35.83,6.22c-2.6.38-4.25,3.81-3.49,6.15.92,2.85,3.36,3.9,6.15,3.5q18-2.61,35.83-6.22c2.77-.57,4-3.66,3.49-6.15l-.8-3.92c-.56-2.78-3.65-4-6.15-3.5q-17.72,3.6-35.6,6.18a5,5,0,0,0-3,2.3A5.82,5.82,0,0,0,228,561l.57,4c.37,2.6,3.8,4.25,6.15,3.5C237.57,567.52,238.62,565.07,238.22,562.29Z" transform="translate(-124.42 -216.15)"/><path class="cls-1" d="M196.8,560.49c-2.31.07-4.62.07-6.94,0-1.22-.05-2.45-.13-3.67-.24-.61-.05-1.22-.11-1.82-.18l-.91-.11c.5.06.56.07.2,0-2.26-.39-4.5-.79-6.71-1.4q-1.65-.45-3.27-1c-.58-.2-1.15-.43-1.73-.64s-.51-.21,0,0l-.76-.35c-2.37-1.08-5.49-.75-6.84,1.8-1.16,2.19-.75,5.68,1.79,6.84,9.61,4.38,20.15,5.57,30.62,5.27a5,5,0,0,0,0-10Z" transform="translate(-124.42 -216.15)"/><path class="cls-2" d="M187.94,577l-4,0,5,5q.06-14.26.14-28.54l-5,5,4,0-5-5q-.08,14.28-.14,28.54a5,5,0,0,0,10,0q.06-14.26.14-28.54a5.08,5.08,0,0,0-5-5l-4,0a5.08,5.08,0,0,0-5,5q-.08,14.28-.14,28.54a5.07,5.07,0,0,0,5,5l4,0a5,5,0,1,0,0-10Z" transform="translate(-124.42 -216.15)"/><path class="cls-1" d="M191.35,510.72q.12-15.71.25-31.41a5,5,0,0,0-10,0q-.14,15.7-.25,31.41a5,5,0,0,0,10,0Z" transform="translate(-124.42 -216.15)"/><path class="cls-2" d="M175,503.49,173,500l-1.8,6.84c1.62-.91,3.26-1.76,4.94-2.56.71-.34,1.42-.66,2.14-1l.9-.39.55-.24q-.78.33-.27.12a57.31,57.31,0,0,1,9.65-3l1.32-.23c1.09-.19-.75,0,.46-.06.83-.06,1.66-.14,2.49-.16s1.69,0,2.53,0l1.28.11c1.19.09-.71-.16.38.05a38.34,38.34,0,0,1,5.14,1.31l1.28.47c1,.36-.54-.28.52.21.86.4,1.72.82,2.56,1.26L205.3,496l-1.89,3.52,6.84-1.79a35.47,35.47,0,0,0-10.66-3.84,34.29,34.29,0,0,0-11.87.16c-6.86,1.23-13.53,4.32-19.57,7.7a5,5,0,1,0,5,8.63q2.19-1.21,4.44-2.3c.64-.31,1.27-.6,1.91-.89l.93-.42c.13-.05,1.41-.57.34-.15a52.63,52.63,0,0,1,8.67-2.75c.37-.08.75-.15,1.12-.21.12,0,1.35-.19.7-.12s.59-.05.71-.06l1.15-.07a23.91,23.91,0,0,1,2.54,0c.36,0,.71.07,1.06.08.78,0-1.17-.21.17,0a30.23,30.23,0,0,1,4.29,1.07c.44.14.86.31,1.29.46.86.32-.18-.11.32.13.8.38,1.59.75,2.37,1.16a5.07,5.07,0,0,0,6.84-1.79l1.9-3.52a5.08,5.08,0,0,0-1.79-6.84,39.42,39.42,0,0,0-11.68-4.22,38,38,0,0,0-13.11.06c-7.43,1.27-14.64,4.56-21.18,8.21a5.09,5.09,0,0,0-1.79,6.84l2,3.49a5,5,0,0,0,8.64-5.05Z" transform="translate(-124.42 -216.15)"/><path class="cls-1" d="M198.47,418.16c-2.19-.09-4.37-.22-6.56-.4-1.08-.1-2.17-.2-3.25-.33l-1.86-.22c1.08.14-.54-.08-.74-.12a79.14,79.14,0,0,1-12.89-3,5,5,0,0,0-6.15,3.49,5.11,5.11,0,0,0,3.49,6.15c9,3,18.53,4.06,28,4.46a5,5,0,0,0,5-5,5.11,5.11,0,0,0-5-5Z" transform="translate(-124.42 -216.15)"/><path class="cls-2" d="M189,430.63l-4,0,5,5q.15-13.8.33-27.59l-5,5,4,.05-5-5q-.18,13.8-.33,27.58a5,5,0,0,0,10,0q.15-13.78.33-27.58a5.09,5.09,0,0,0-5-5l-4-.05a5.07,5.07,0,0,0-5,5q-.18,13.8-.33,27.59a5.08,5.08,0,0,0,5,5l4,0a5,5,0,0,0,5-5A5.1,5.1,0,0,0,189,430.63Z" transform="translate(-124.42 -216.15)"/><path class="cls-1" d="M193.23,351.08q.38-20,.87-40a5,5,0,0,0-10,0q-.51,20-.87,40a5,5,0,0,0,10,0Z" transform="translate(-124.42 -216.15)"/><path class="cls-2" d="M178.33,340.33l-1.81-3.56-1.8,6.84c1.41-.72,2.84-1.4,4.28-2.06l2-.9,1-.44c.09,0,1.43-.6.43-.19q4.26-1.77,8.59-3.33c6.06-2.16,12.24-4,18.48-5.54l-6.15-3.49,1,3.88,3.49-6.15a172.45,172.45,0,0,0-36.33,13.15,5,5,0,0,0-1.8,6.84,5.11,5.11,0,0,0,6.84,1.79c1.31-.66,2.64-1.29,4-1.91l2.2-1,1-.44.62-.27c-.59.25.51-.21.62-.25l1-.42,2-.82c1.45-.56,2.91-1.11,4.38-1.63,5.93-2.12,12-3.9,18.09-5.42a5.08,5.08,0,0,0,3.49-6.15L213,325a5.09,5.09,0,0,0-6.15-3.5A176.87,176.87,0,0,0,169.67,335c-2.5,1.27-2.95,4.55-1.79,6.84l1.81,3.57a5,5,0,0,0,6.84,1.79A5.12,5.12,0,0,0,178.33,340.33Z" transform="translate(-124.42 -216.15)"/><line class="cls-3" x1="10.73" y1="34.53" x2="336.71" y2="34.53"/><line class="cls-3" x1="10.73" y1="94.92" x2="336.71" y2="94.92"/><path class="cls-1" d="M175.63,345.39q2-1,4.12-2l2.15-1L183,342c.3-.12,1-.41.32-.14q4.33-1.81,8.76-3.38c5.89-2.09,11.88-3.86,17.94-5.36a5,5,0,1,0-2.66-9.64,174.63,174.63,0,0,0-36.76,13.3,5,5,0,0,0-1.79,6.85,5.13,5.13,0,0,0,6.84,1.79Z" transform="translate(-124.42 -216.15)"/><path class="cls-1" d="M173.17,414.06c-.87-.3-1.74-.6-2.6-.93a9.54,9.54,0,0,1-1.19-.48l.35.15-.84-.37q-2.26-1-4.42-2.28c-1.44-.84-2.85-1.74-4.2-2.7l-1.05-.77c-.46-.34.28.22.28.22s-.35-.28-.43-.34c-.72-.58-1.42-1.17-2.11-1.79a47.88,47.88,0,0,1-3.49-3.49c-.53-.59-1-1.19-1.53-1.8s.11-.17.11.16c0-.09-.27-.36-.32-.44l-.74-1a38.15,38.15,0,0,1-2.57-4.3c-.16-.31-.32-.63-.47-.95-.07-.14-.62-1.39-.33-.7s-.22-.58-.27-.72c-.15-.39-.28-.78-.41-1.18a31.84,31.84,0,0,1-1.19-4.83,3.23,3.23,0,0,0-.08-.53s.11,1,.07.44c0-.42-.09-.84-.12-1.26-.05-.85-.08-1.7-.07-2.55s.06-1.57.13-2.36c0-.17,0-.35,0-.53.08-.91,0,.13,0,.26.11-.39.13-.83.2-1.23a33,33,0,0,1,1.26-4.78l.36-1c.09-.22.18-.43.26-.65.2-.53-.15.36-.16.38a14.06,14.06,0,0,0,1.06-2.25,42.45,42.45,0,0,1,2.57-4.3c.44-.65.91-1.28,1.38-1.92.34-.46-.22.3-.23.29l.35-.43c.3-.38.62-.75.93-1.13,1.09-1.27,2.24-2.49,3.43-3.66q2.1-2,4.37-3.89c.39-.33.79-.64,1.19-1s-.24.18-.26.2a4.64,4.64,0,0,1,.61-.46c.82-.61,1.65-1.2,2.49-1.78a90.71,90.71,0,0,1,10.14-6,5,5,0,0,0,1.79-6.84,5.12,5.12,0,0,0-6.84-1.8c-13.53,6.92-26.4,17.2-32.33,31.57a36.24,36.24,0,0,0-1.6,22.46A42.48,42.48,0,0,0,148,410.07a57.42,57.42,0,0,0,22.48,13.63,5,5,0,0,0,6.15-3.49,5.11,5.11,0,0,0-3.49-6.15Z" transform="translate(-124.42 -216.15)"/><path class="cls-1" d="M334.25,337.3a152,152,0,0,1-3.85,19.15c-.83,3.05-1.76,6.08-2.78,9.07-.44,1.29-.9,2.56-1.38,3.83l-.69,1.8-.48,1.19c-.09.22-.59,1.4-.16.39a86.74,86.74,0,0,1-8.1,15q-.6.89-1.23,1.74l-.76,1c.11-.15.59-.74,0,0-.94,1.17-1.9,2.31-2.91,3.41a61.29,61.29,0,0,1-6,5.72c-.46.39-.94.76-1.41,1.14-.63.51.95-.7-.1.08l-.65.48q-1.78,1.31-3.65,2.5c-2.27,1.44-4.62,2.76-7,4-1.21.6-2.44,1.17-3.68,1.71l-.74.32-.12,0-2.08.82c-2.61,1-5.26,1.86-7.93,2.62s-5.26,1.38-7.92,1.93q-2,.41-4,.75c-.8.14-1.59.26-2.39.38-.4.07-.8.12-1.2.18l-.72.1c.53-.07.5-.06-.11,0-6.41.79-12.85,1.23-19.31,1.43-7.28.23-14.56.2-21.85.2-7.5,0-15,.14-22.52-.16a5,5,0,0,0-5,5,5.11,5.11,0,0,0,5,5c6.86.27,13.72.18,20.58.16,6.64,0,13.28,0,19.91-.1,13.16-.26,26.46-1.2,39.25-4.44,11-2.78,21.78-7.27,30.9-14a74,74,0,0,0,22.68-28.05A141.58,141.58,0,0,0,343.89,340a5.48,5.48,0,0,0-.51-3.85,5.05,5.05,0,0,0-3-2.3c-2.35-.53-5.78.72-6.15,3.49Z" transform="translate(-124.42 -216.15)"/><path class="cls-1" d="M335.37,314.66a156.14,156.14,0,0,1-1.3,24c-.35,2.61,2.54,5.11,5,5,3-.13,4.63-2.21,5-5a156.14,156.14,0,0,0,1.3-24,5,5,0,1,0-10,0Z" transform="translate(-124.42 -216.15)"/><path class="cls-1" d="M283.13,250.67c.06-2.07.18-4.13.41-6.18,0-.23,0-.46.08-.69.05-.46-.16-.55,0,.3a5.07,5.07,0,0,1,.21-1.37c.17-1,.37-2,.6-3s.47-1.84.76-2.75c.15-.47.31-.93.48-1.4.08-.2.16-.4.23-.6.35-.93-.46,1,0,0,.37-.75.73-1.51,1.16-2.23q.32-.54.66-1.05c.14-.21.31-.41.44-.63.32-.51-.71.83-.12.18s1.16-1.25,1.79-1.84c.42-.39.66-.2-.2.12a2.58,2.58,0,0,0,.49-.36,13.48,13.48,0,0,1,1.31-.8c.15-.09,1.07-.41,1.11-.55,0,.08-1.16.42-.3.14l.61-.21c.47-.15,1-.28,1.44-.39.08,0,1.27-.25.41-.09s.22,0,.4,0a14.06,14.06,0,0,1,1.59,0l.7.05c.7,0-1-.18-.29,0a27.59,27.59,0,0,1,3.24.86c.26.09.9.21-.19-.1a5.58,5.58,0,0,1,.66.3c.44.21.87.44,1.3.68a30.43,30.43,0,0,1,2.83,1.84c.75.54,0,0-.1-.08a6.24,6.24,0,0,1,.75.61c.4.34.78.69,1.17,1,.92.85,1.8,1.75,2.64,2.68s1.37,1.62,2.05,2.44c-.72-.87.24.31.42.57.39.53.77,1.06,1.14,1.61a109.82,109.82,0,0,1,7.39,13.08c1.14,2.31,2.22,4.66,3.25,7,.09.22.47,1.13.1.23.11.27.22.54.34.81l.66,1.64c.49,1.24,1,2.48,1.42,3.72a152.43,152.43,0,0,1,4.6,14.79,162.67,162.67,0,0,1,3.34,16.92c.21,1.42-.07-.66,0,.21,0,.37.1.73.14,1.1.09.73.18,1.46.26,2.2.16,1.47.3,2.93.42,4.41q.34,4.41.45,8.84a5,5,0,0,0,10,0,160.51,160.51,0,0,0-15.7-65.56c-4.5-9.35-9.81-19.14-18.1-25.68-4.35-3.43-9.29-5.94-14.92-6.2a20.09,20.09,0,0,0-14,5.21c-7.68,6.84-9.19,18.56-9.47,28.24a5,5,0,0,0,5,5,5.1,5.1,0,0,0,5-5Z" transform="translate(-124.42 -216.15)"/><path class="cls-4" d="M278.35,311.06q-.12-28.71-.25-57.44c0-1,0-2,0-3" transform="translate(-124.42 -216.15)"/><path class="cls-1" d="M242.84,331.07l1,9.86a54.45,54.45,0,0,0,1.19,8c1.14,4.56,3.2,9.53,6.77,12.75,4.32,3.89,10.54,4.75,15.5,1.39s8.48-8.66,10.81-14a64.51,64.51,0,0,0,4.68-19.26c.27-2.61-2.5-5.11-5-5-2.94.13-4.71,2.2-5,5l-.21,1.83c-.08.76.13-.86,0-.11l-.15,1c-.19,1.2-.4,2.4-.66,3.59a50.63,50.63,0,0,1-1.88,6.71,7.33,7.33,0,0,1-.64,1.65c.08-.11.44-1,0-.11-.1.24-.21.48-.32.72-.5,1.06-1.05,2.1-1.65,3.11s-1.27,2-2,2.95c.62-.86-.2.25-.45.54q-.64.76-1.35,1.5c-.38.39-.79.76-1.2,1.13-.91.86.53-.25-.12.1-.24.12-.46.29-.7.43s-1.07.38-.09.09l-.68.2a3,3,0,0,0-.57.12c.32-.23,1.21-.09.22-.07-.18,0-.36,0-.53,0-.5,0-.36-.31.54.09a6.54,6.54,0,0,0-1-.26c-.73-.2.42.15.48.21a2.65,2.65,0,0,0-.58-.3l-.44-.28c-.91-.56.49.48.16.13s-.62-.56-.9-.87c-.13-.14-.25-.29-.38-.42-.33-.36-.06-.43.23.32a26.44,26.44,0,0,0-1.46-2.33c-.23-.42-.43-.85-.64-1.29-.53-1.11.3.87-.12-.31-.36-1-.7-2-1-3a31.84,31.84,0,0,1-.7-3.19,3,3,0,0,0-.1-.63c.25.45.12,1,0,.09-.08-.75-.15-1.51-.22-2.27l-1-9.86c-.25-2.59-2.12-5.13-5-5-2.49.11-5.27,2.21-5,5Z" transform="translate(-124.42 -216.15)"/><path class="cls-1" d="M241.12,313.39l1.72,17.68a5.42,5.42,0,0,0,1.46,3.54,5.05,5.05,0,0,0,3.54,1.46c2.49-.11,5.27-2.21,5-5l-1.72-17.68a5.43,5.43,0,0,0-1.47-3.54,5.09,5.09,0,0,0-3.53-1.46c-2.5.11-5.27,2.21-5,5Z" transform="translate(-124.42 -216.15)"/><path class="cls-1" d="M196.87,250.67c.12-.9,0,.16,0,.29,0-.23.07-.47.1-.7.07-.47.14-.94.22-1.41q.25-1.57.57-3.15a58.45,58.45,0,0,1,1.5-5.82c.28-.88.59-1.75.92-2.61a3.39,3.39,0,0,1,.25-.64c-.49.59-.3.69-.1.26s.46-1,.71-1.53q.6-1.19,1.29-2.31c.23-.37.47-.73.71-1.09l.38-.52c.64-.93-.73.84,0,0a25.4,25.4,0,0,1,1.72-1.87c.3-.29.63-.56.94-.84.67-.6-.21.22-.27.2s.72-.52.77-.56a18.72,18.72,0,0,1,2.22-1.27,4.71,4.71,0,0,1,.59-.27s-1.21.44-.27.14c.49-.17,1-.34,1.48-.48s1.05-.25,1.59-.35,0-.19-.27,0a3,3,0,0,1,.71-.06,23.39,23.39,0,0,1,3,.07c.71,0-1-.18-.27,0l.7.13c.53.1,1.05.23,1.57.38s.92.28,1.37.45c.1,0,.65.27.68.25-.16.11-1-.43,0,0a24,24,0,0,1,2.59,1.4c.42.26.83.53,1.24.81a5.11,5.11,0,0,1,.75.54c-.43-.44-.44-.35,0,0a28,28,0,0,1,2.2,2c.35.36.69.72,1,1.09l.49.57c.46.55.46.25,0,0,.36.2.75,1,1,1.36s.54.84.8,1.27a35.12,35.12,0,0,1,1.68,3.22l.35.77c-.4-.88-.08-.2,0,0,.21.53.42,1.06.61,1.59.42,1.21.8,2.44,1.14,3.67a70.25,70.25,0,0,1,1.51,7.17c.09.57.17,1.14.26,1.71.14,1,0,.15,0,0,0,.29.07.57.11.86.16,1.29.3,2.59.44,3.88.57,5.45,1.07,10.9,1.6,16.35l3.68,37.76c.25,2.59,2.12,5.13,5,5,2.49-.11,5.27-2.21,5-5l-3.51-36c-.57-5.89-1.12-11.78-1.73-17.66a107.43,107.43,0,0,0-2.61-16.25c-2.62-10-8.28-19.51-17.76-24.33a25.38,25.38,0,0,0-15.31-2.74,22.4,22.4,0,0,0-12.28,6.22c-7.46,7.24-9.78,18.16-11,28.06-.33,2.61,2.54,5.12,5,5,3-.13,4.65-2.2,5-5Z" transform="translate(-124.42 -216.15)"/><path class="cls-4" d="M189.1,311.06c.67-26.11,1.44-45.87,2.32-56.08.12-1.41.27-2.85.45-4.31" transform="translate(-124.42 -216.15)"/><path class="cls-1" d="M192.36,408q.36-28.48.87-56.95a5,5,0,0,0-5-5,5.1,5.1,0,0,0-5,5q-.51,28.47-.87,56.95a5,5,0,0,0,10,0Z" transform="translate(-124.42 -216.15)"/><path class="cls-1" d="M192,435.61q.15-13.78.33-27.58a5,5,0,0,0-10,0q-.18,13.79-.33,27.58a5,5,0,0,0,10,0Z" transform="translate(-124.42 -216.15)"/><path class="cls-1" d="M191.6,479.31q.19-21.84.43-43.7a5,5,0,0,0-10,0q-.24,21.86-.43,43.7a5,5,0,0,0,10,0Z" transform="translate(-124.42 -216.15)"/><path class="cls-1" d="M191.08,553.46q.12-21.37.27-42.74a5,5,0,0,0-10,0q-.15,21.38-.27,42.74a5,5,0,0,0,10,0Z" transform="translate(-124.42 -216.15)"/><path class="cls-1" d="M190.94,582q.06-14.26.14-28.54a5,5,0,0,0-10,0q-.08,14.28-.14,28.54a5,5,0,0,0,10,0Z" transform="translate(-124.42 -216.15)"/><path class="cls-1" d="M191.45,781.19c-.19-6.94-.28-13.89-.36-20.83q-.18-15.81-.23-31.63-.11-20.31-.11-40.63,0-23.61,0-47.22,0-26.07.14-52.16l0-6.72a5,5,0,0,0-10,0q-.1,26.31-.16,52.61,0,24,0,47.91,0,20.81.1,41.6.06,16.43.22,32.84c.07,7.44.16,14.87.34,22.31,0,.64,0,1.28,0,1.92a5,5,0,0,0,10,0Z" transform="translate(-124.42 -216.15)"/><path class="cls-1" d="M248.39,578.06c4.44,19.33,7.19,39,12.13,58.22a5,5,0,1,0,9.64-2.66c-4.94-19.21-7.69-38.89-12.13-58.22a5,5,0,0,0-6.15-3.49,5.11,5.11,0,0,0-3.49,6.15Z" transform="translate(-124.42 -216.15)"/><path class="cls-1" d="M206.15,504.55a46.91,46.91,0,0,1,4.76,3l.7.51.19.14.18.14.51.41c.79.64,1.56,1.31,2.31,2a79.45,79.45,0,0,1,7.84,8.26c.59.72,1.16,1.44,1.74,2.16.35.45-.09-.11-.13-.16l.38.51c.3.39.6.79.89,1.2q1.69,2.32,3.25,4.75a111,111,0,0,1,5.65,9.82q1.41,2.76,2.7,5.6c.44,1,.87,2,1.3,3,0-.07-.31-.74-.09-.21.14.34.28.67.41,1,.22.53.44,1.06.65,1.6,1,2.42,3.38,4.39,6.15,3.49,2.34-.76,4.52-3.55,3.49-6.15-6-15.13-14.24-29.76-26.2-41a57,57,0,0,0-11.63-8.62,5,5,0,0,0-5,8.63Z" transform="translate(-124.42 -216.15)"/><path class="cls-1" d="M172.21,508.59c1.45-.81,2.93-1.58,4.42-2.3.75-.36,1.5-.71,2.26-1.05l1-.46c1.38-.61-.91.35.49-.21a48.92,48.92,0,0,1,9.55-2.89c.12,0,1.34-.23.67-.13s.55-.06.68-.07c.89-.09,1.79-.14,2.69-.15s1.5,0,2.25.08c.44,0,.87.08,1.31.13-.9-.11,0,0,.39.1a30.07,30.07,0,0,1,4.4,1.19l1,.38c1.1.41-.56-.28.41.18.8.37,1.58.75,2.36,1.16a5,5,0,0,0,5-8.63A38.24,38.24,0,0,0,200.62,492a36,36,0,0,0-12.42-.11c-7.38,1.15-14.56,4.46-21,8.08a5,5,0,1,0,5,8.63Z" transform="translate(-124.42 -216.15)"/><path class="cls-1" d="M171.23,556.58A38.67,38.67,0,0,1,165.1,553l-.6-.44c-1-.7.56.48,0,0-.44-.36-.88-.71-1.3-1.08A34.94,34.94,0,0,1,160.6,549c-.77-.8-1.49-1.65-2.19-2.52-.49-.59.68,1,0,0l-.43-.6c-.35-.5-.68-1-1-1.53-.57-.93-1.09-1.88-1.57-2.87-.13-.27-.24-.55-.37-.82-.32-.68.42,1.15,0,0-.2-.56-.42-1.12-.6-1.69a25.38,25.38,0,0,1-.77-3.12,3.1,3.1,0,0,1-.12-.71c-.2.9.08.66,0,.09s-.1-1.31-.11-2a26.54,26.54,0,0,1,.16-3.09c.07-.77-.25,1.23,0,0,.05-.24.08-.48.13-.72.12-.59.27-1.19.43-1.77s.35-1.16.55-1.72l.26-.68c.32-.86-.07.08-.09.2a11.84,11.84,0,0,1,1.66-3.19c.15-.24,1.82-2.72,1.84-2.7s-.61.75-.11.15c.2-.24.39-.48.59-.71.44-.52.89-1,1.35-1.51.86-.91,1.76-1.77,2.69-2.6q.7-.63,1.44-1.23l.74-.59c.28-.23.19-.16-.27.2l.46-.35a66,66,0,0,1,6.9-4.46,5,5,0,1,0-5-8.63c-9.49,5.37-18.27,12.93-22.06,23.44-3.92,10.85-.34,22.34,6.81,30.91a41.88,41.88,0,0,0,14.26,10.91c2.37,1.11,5.5.74,6.84-1.8,1.17-2.21.74-5.65-1.79-6.84Z" transform="translate(-124.42 -216.15)"/><path class="cls-1" d="M231.79,556.81l-4.39.62-.8.11c.55-.08-.83.11-.8.1l-2.19.29c-3,.38-6,.75-9,1.09-5.91.67-11.82,1.28-17.77,1.47a5,5,0,1,0,0,10c12.59-.4,25.19-2.25,37.64-4,2.6-.38,4.25-3.81,3.5-6.15-.92-2.85-3.37-3.9-6.15-3.5Z" transform="translate(-124.42 -216.15)"/><path class="cls-1" d="M267.5,550.61q-17.76,3.61-35.71,6.2c-2.6.38-4.26,3.81-3.5,6.15.92,2.85,3.37,3.9,6.15,3.5q17.94-2.6,35.72-6.2a5,5,0,0,0,3.49-6.15,5.13,5.13,0,0,0-6.15-3.5Z" transform="translate(-124.42 -216.15)"/><path class="cls-1" d="M234.22,318.51a252.56,252.56,0,0,0-26.88,4.94,5,5,0,0,0-3.49,6.15,5.11,5.11,0,0,0,6.15,3.49q6.18-1.51,12.45-2.68c2.05-.39,4.11-.74,6.17-1.07l3.1-.48,1.43-.2,1.07-.15a5.53,5.53,0,0,0,3.53-1.47,5.08,5.08,0,0,0,1.47-3.53c-.11-2.41-2.23-5.37-5-5Z" transform="translate(-124.42 -216.15)"/><path class="cls-1" d="M269.44,315.74q-7.67.25-15.31.78a5.31,5.31,0,0,0-3.54,1.47,5,5,0,0,0-1.46,3.53c.11,2.55,2.2,5.2,5,5q7.65-.52,15.31-.78c2.61-.09,5.13-2.24,5-5a5.06,5.06,0,0,0-5-5Z" transform="translate(-124.42 -216.15)"/><path class="cls-1" d="M316.43,315.67c-15.63-.55-31.36-.46-47,.07a5,5,0,0,0,0,10c15.63-.53,31.36-.62,47-.07a5,5,0,0,0,5-5,5.1,5.1,0,0,0-5-5Z" transform="translate(-124.42 -216.15)"/><path class="cls-1" d="M270.16,560.26q15.27-3.12,30.37-7a195,195,0,0,0,29-9.34,141.18,141.18,0,0,0,13.18-6.63c4-2.28,8.36-4.45,12.07-7.28a23.87,23.87,0,0,0,8.15-11.09,22.51,22.51,0,0,0,.69-3c.47-2.19,1-4.35,1.47-6.55,4-20.54,7.42-41.25,10-62,2.45-20.08,3.81-40.39,2.32-60.6a191.43,191.43,0,0,0-4.48-30.22c-2.13-9-5.44-17.82-11.54-24.89a34.44,34.44,0,0,0-4.85-4.58,5.45,5.45,0,0,0-3.54-1.47,5.11,5.11,0,0,0-3.54,1.47c-1.64,1.79-2.2,5.35,0,7.07a33.38,33.38,0,0,1,4.85,4.58c.31.36.61.73.91,1.09-.69-.84.25.36.43.62.62.88,1.2,1.79,1.75,2.72s1,1.78,1.43,2.69c.21.43.42.86.61,1.29.12.25.23.49.34.74.39.88-.17-.44.05.13.75,2,1.48,4,2.09,6a128,128,0,0,1,3,13c.44,2.43.84,4.86,1.19,7.31.05.32.09.63.14.95,0-.22-.12-.92,0,.09l.21,1.66c.15,1.26.29,2.53.42,3.79,2,19.66,1.15,39.51-.95,59.12q-.39,3.6-.82,7.19l-.45,3.59c-.07.55-.15,1.11-.22,1.67l-.12.95c-.21,1.53.07-.54-.05.35q-1,7.39-2.15,14.77-2.31,15-5.06,30c-.89,4.79-1.82,9.55-2.93,14.28-.25,1-.36,2.15-.68,3.19a4.5,4.5,0,0,0-.25.7c0-.07.57-1.22.19-.49-.09.18-.17.37-.26.55a24,24,0,0,1-1.56,2.75c-.1.16-.22.32-.33.47-.39.59.57-.6.08-.12-.31.31-.58.65-.89,1s-.73.67-1.1,1c-.08.08-.58.47-.08.08s-.28.2-.4.28c-1.81,1.27-3.76,2.34-5.67,3.45-4.18,2.44-8.39,4.85-12.72,7-1.05.53-2.1,1-3.16,1.53l-1.49.68-.86.38c-.15.07-1.14.48-.32.14q-3.25,1.35-6.58,2.51c-4.58,1.61-9.24,3-13.93,4.24q-14.6,3.93-29.4,7.09c-2.39.52-4.8,1-7.2,1.51a5,5,0,0,0-3.49,6.15,5.12,5.12,0,0,0,6.15,3.5Z" transform="translate(-124.42 -216.15)"/><polyline class="cls-4" points="9.74 26.63 1.74 32.25 9.74 37.88 1.74 43.5 9.74 49.12 1.74 54.74 9.74 60.36 1.74 65.99 9.74 71.61 1.74 77.23 9.74 82.86 1.74 88.48 9.74 94.11 1.74 99.74 9.74 105.37"/><polyline class="cls-4" points="350.4 25.35 342.4 30.97 350.4 36.59 342.4 42.22 350.4 47.84 342.4 53.46 350.4 59.08 342.4 64.7 350.4 70.33 342.4 75.95 350.4 81.58 342.4 87.2 350.4 92.83 342.4 98.46 350.4 104.09"/><path class="cls-5" d="M160.76,670.83q.54,31.57,0,63.16" transform="translate(-124.42 -216.15)"/><path class="cls-1" d="M160.55,746.06c-2-5.71-5.54-12.8-9.3-17.22l9.47,3.57,9.55-3.32C166.41,733.41,162.73,740.41,160.55,746.06Z" transform="translate(-124.42 -216.15)"/></svg>