<svg id="Layer_1" data-name="Layer 1" xmlns="http://www.w3.org/2000/svg" viewBox="0 0 228.83 371.51"><defs><style>.cls-1{fill:#231f20;}.cls-2,.cls-3{fill:#fff;}.cls-3,.cls-4,.cls-5{stroke:#231f20;stroke-miterlimit:10;stroke-width:2px;}.cls-4,.cls-5{fill:none;}.cls-4{stroke-dasharray:3;}.cls-5{stroke-dasharray:3 3;}</style></defs><path class="cls-1" d="M211.26,251.81l-1.12.15-1.47.2-3.43.45c-2.29.29-4.57.57-6.86.84q-6.85.81-13.74,1.44c-2.6.24-5.13,2.13-5,5,.11,2.51,2.21,5.26,5,5,9.79-.89,19.54-2.11,29.27-3.43,2.61-.36,4.25-3.82,3.5-6.16-.93-2.86-3.37-3.87-6.15-3.49Z" transform="translate(-109.48 -169.64)"/><path class="cls-2" d="M198.47,264.45l-3.58-1.78,1.79,6.85a151.62,151.62,0,0,1,7.51-13.41c1.31-2.06,2.66-4.09,4.09-6.06l1.08-1.48c.56-.74-.19.23.16-.2l.53-.68c.72-.9,1.47-1.78,2.24-2.64h-7.07l3,2.67v-7.07c-6.75,7.59-12.06,16.53-16.57,25.59-1.16,2.34-.7,5.53,1.8,6.85,2.26,1.19,5.59.7,6.84-1.8a144.92,144.92,0,0,1,7.24-12.94q1.94-3.08,4.06-6c.35-.49.72-1,1.08-1.46s.35-.47,0,0l.53-.67c.67-.83,1.36-1.65,2.08-2.45,1.72-1.94,2.11-5.19,0-7.07l-3-2.67c-1.92-1.72-5.2-2.11-7.07,0-7,7.86-12.5,17.1-17.17,26.49-1.14,2.29-.76,5.58,1.79,6.84l3.59,1.78c2.34,1.16,5.52.7,6.84-1.8C201.46,269,201,265.69,198.47,264.45Z" transform="translate(-109.48 -169.64)"/><path class="cls-1" d="M119.5,535.75q.57-6.81,1.31-13.6.36-3.35.77-6.67c.13-1.07.26-2.15.4-3.22l.21-1.61.09-.69s.18-1.33.09-.71,0-.19,0-.25l.12-.92c.08-.53.15-1.07.23-1.6.16-1.15.32-2.3.49-3.44q.51-3.44,1.06-6.87,1.06-6.63,2.29-13.23,4.93-26.64,12.47-52.71T156.65,379q1.24-3.12,2.52-6.22c.42-1,.84-2,1.25-3,.22-.53,0,0,0,.13l.36-.86c.24-.56.48-1.13.73-1.7,1.71-4,3.46-8,5.28-11.92a192.49,192.49,0,0,1,11.45-21.74q1.6-2.56,3.33-5.05c.56-.8,1.12-1.59,1.7-2.37.33-.44.67-.88,1-1.33-.62.83.33-.4.5-.62a84.29,84.29,0,0,1,8.15-8.85c1.5-1.4,3.08-2.71,4.66-4,.6-.48-.59.44,0,0l.52-.39q.62-.46,1.23-.9c.89-.63,1.78-1.24,2.69-1.84a81.46,81.46,0,0,1,11.25-6.1l1.39-.61c-.89.38.33-.14.62-.25,1-.41,2-.8,3.05-1.17,2.45-.9,4.37-3.44,3.49-6.15-.77-2.41-3.52-4.45-6.15-3.49a87.88,87.88,0,0,0-23.48,12.53,90.64,90.64,0,0,0-18.31,19.15c-10.17,14.1-17,30.43-23.7,46.39q-10.54,25.32-18.55,51.62t-13.38,53.44c-3.61,18.23-6.31,36.65-8.1,55.15q-.33,3.45-.62,6.92c-.23,2.61,2.45,5.11,5,5a5.14,5.14,0,0,0,5-5Z" transform="translate(-109.48 -169.64)"/><path class="cls-2" d="M169.79,353.59l-4-.45,5,5c.05-.49.11-1,.17-1.45,0-.26.18-1.43.07-.6.14-1,.3-2.09.46-3.12q.47-3,1-6c.73-3.87,1.57-7.73,2.47-11.57,1.75-7.39,3.72-14.74,5.77-22.05q1.51-5.43,3.16-10.82l-6.15,3.49,3.83,1.18-3.5-6.15A416.53,416.53,0,0,0,167.05,344q-1.41,7.28-2.26,14.64c-.3,2.61,2.52,5.11,5,5,3-.13,4.68-2.21,5-5,.07-.64.15-1.28.23-1.92s.08-.63,0-.1c.05-.32.09-.64.14-1,.18-1.27.38-2.54.59-3.81.41-2.52.89-5,1.4-7.53,1-4.84,2.13-9.65,3.35-14.44,2.23-8.74,4.61-17.46,7.26-26.09a5.09,5.09,0,0,0-3.5-6.15l-3.82-1.17a5.09,5.09,0,0,0-6.15,3.49,415.52,415.52,0,0,0-11.22,43.5q-1.41,7.32-2.26,14.73a4.91,4.91,0,0,0,1.46,3.53,5.81,5.81,0,0,0,3.54,1.47l4,.45c2.61.3,5.11-2.51,5-5C174.66,355.63,172.58,353.91,169.79,353.59Z" transform="translate(-109.48 -169.64)"/><line class="cls-3" x1="107.49" y1="13.5" x2="107.49" y2="361.55"/><line class="cls-3" x1="183.47" y1="13.5" x2="183.47" y2="361.55"/><path class="cls-1" d="M184.64,254.89c-9.32.84-18.67,1.39-28,1.49a5,5,0,0,0,0,10c9.36-.1,18.71-.65,28-1.49,2.6-.23,5.13-2.13,5-5-.11-2.51-2.21-5.25-5-5Z" transform="translate(-109.48 -169.64)"/><path class="cls-1" d="M293,228.4c2.74,0,5.49-.06,8.24,0,1.2,0,2.4.09,3.59.17q1,.07,2,.18l.89.1c-.73-.09-.22,0,.22,0a37.35,37.35,0,0,1,7.5,2c-.88-.34.41.19.64.3.45.22.88.45,1.31.69s.86.51,1.28.79c.2.13.41.27.61.42a4.84,4.84,0,0,1,.46.33c.29.21.2.14-.28-.22.21,0,1,.83,1.13,1,.37.33.72.68,1.06,1l.5.55s.84.95.31.34.06.09.16.23.35.5.51.76.51.82.73,1.25c.15.27.27.55.4.81.33.62-.29-.85-.08-.19.15.46.32.9.45,1.37.07.23.13.47.18.7s.25,1.4.13.59,0,.74,0,.93-.19.84,0,.18c.31-.92-.19.3-.13.31-.16,0,.7-1.21.61-1.13.11-.1,2-.87.9-.62.24-.05,1,0,.14-.07-.34,0-.7,0-1,0-2.86-.14-5.71-.23-8.57-.27-22.75-.33-45.4,2.34-67.88,5.49-12.59,1.76-25.14,3.7-37.73,5.42-2.6.36-4.25,3.82-3.5,6.15.93,2.86,3.37,3.88,6.15,3.5,11.86-1.62,23.69-3.44,35.54-5.12l4.38-.61,2.19-.3,1.22-.17.38,0q4.5-.6,9-1.15c5.92-.71,11.85-1.35,17.78-1.86A316.65,316.65,0,0,1,320.05,251c3,.08,6.4.71,9.32-.14,3.73-1.09,5.62-4.77,5.57-8.45A21.68,21.68,0,0,0,328.55,228c-9.22-9.6-23.22-9.76-35.6-9.6a5,5,0,0,0,0,10Z" transform="translate(-109.48 -169.64)"/><path class="cls-4" d="M217,236.65q1.23-.9,2.52-1.68c6.32-3.82,13.71-5.39,21-6.66A333.39,333.39,0,0,1,293,223.4" transform="translate(-109.48 -169.64)"/><path class="cls-1" d="M213.78,246.38a45.78,45.78,0,0,1,5.95-5.61l-1,.78.78-.58a4.78,4.78,0,0,0,2.38-5,3.65,3.65,0,0,0-.59-1.86,5,5,0,0,0-3-2.3l-1.33-.18a5,5,0,0,0-2.52.68,50.82,50.82,0,0,0-7.74,7,5.26,5.26,0,0,0-1.47,3.54,3.82,3.82,0,0,0,.43,1.92,3.71,3.71,0,0,0,1,1.61,5,5,0,0,0,7.07,0Z" transform="translate(-109.48 -169.64)"/><path class="cls-1" d="M198.48,270.4c2.17-4.37,4.53-8.64,7.12-12.78,1.28-2,2.62-4.05,4-6,.36-.51.73-1,1.1-1.51l.56-.75c-.3.39-.27.36.09-.1.78-1,1.58-1.93,2.41-2.87,1.73-1.95,2.07-5.17,0-7.07-1.9-1.74-5.22-2.09-7.07,0-6.87,7.74-12.28,16.82-16.87,26.05-1.16,2.33-.7,5.52,1.8,6.84,2.26,1.19,5.59.7,6.84-1.8Z" transform="translate(-109.48 -169.64)"/><path class="cls-1" d="M185.85,303.16c1.78-5.75,3.68-11.45,5.81-17.06.51-1.33,1-2.65,1.55-4l.9-2.19c.13-.32.25-.59,0-.11l.47-1.08q1.81-4.23,3.86-8.35c1.15-2.34.7-5.52-1.8-6.84-2.25-1.19-5.6-.71-6.84,1.8a236.94,236.94,0,0,0-13.63,35.14,5.05,5.05,0,0,0,3.49,6.15,5.1,5.1,0,0,0,6.15-3.49Z" transform="translate(-109.48 -169.64)"/><path class="cls-1" d="M172.8,358.36l.24-1.92c.07-.61.08-.64,0-.12,0-.32.09-.64.13-1,.16-1.12.33-2.24.51-3.35q.59-3.6,1.31-7.17c.92-4.6,2-9.18,3.13-13.74,2.35-9.37,4.89-18.71,7.72-27.94a5,5,0,0,0-3.49-6.15,5.1,5.1,0,0,0-6.15,3.49c-2.88,9.39-5.46,18.88-7.84,28.41a234,234,0,0,0-5.57,29.45c-.3,2.61,2.52,5.11,5,5,3-.13,4.68-2.2,5-5Z" transform="translate(-109.48 -169.64)"/><path class="cls-1" d="M290.43,423.18c1.46.82,2.9,1.69,4.29,2.65l.93.67.46.34c.47.33-.23-.2-.25-.2.62.19,1.39,1.15,1.87,1.58a32.75,32.75,0,0,1,3.36,3.51c.07.08.34.33.35.44s-.54-.76-.22-.28c.21.31.44.61.65.91.46.68.88,1.36,1.27,2.07s.7,1.34,1,2c.4.87-.23-.7.08.22a4.36,4.36,0,0,1,.48,1.55c.07-.58-.13-.46.08-1.24a2.18,2.18,0,0,1,.58-1.22s.83-.54.35-.29.41-.13.42-.13a13.26,13.26,0,0,0-2.49.71c-4,1-8,2-12,3-8,2-16,3.81-24.08,5.25-2.06.36-4.12.71-6.19,1l-2.86.41c.83-.12-.32,0-.58.07l-1.68.21c-3.94.46-7.9.8-11.87,1a134,134,0,0,1-22.92-.87c.89.11-.11,0-.45-.07-.52-.07-1-.15-1.55-.24-1-.15-1.92-.32-2.87-.5-1.83-.34-3.66-.74-5.47-1.19a91.9,91.9,0,0,1-10.88-3.38l-1.25-.49-.83-.34c-.06,0-.74-.31-.23-.09l-.23-.1-.61-.27-1.42-.65a37.73,37.73,0,0,1-4.75-2.6l-.54-.36s-.64-.46-.19-.12-.22-.2-.33-.29l-.49-.42a27.43,27.43,0,0,1-1.88-2c-.38-.42.09.12.13.18-.12-.17-.25-.34-.37-.52-.24-.34-.47-.69-.7-1-.49-.78-1-1.58-1.38-2.39-.89-1.68-1.69-3.4-2.47-5.13-.37-.82-.74-1.65-1.09-2.48.33.77-.09-.22-.2-.48l-.59-1.47q-2.12-5.37-3.76-10.91T174.35,398c-.39-1.92-.73-3.85-1-5.79-.07-.45-.13-.9-.2-1.34l-.09-.68c0-.06-.11-.81,0-.23s0-.16,0-.23c0-.23,0-.45-.08-.67l-.18-1.58a129.75,129.75,0,0,1-.45-23.07q.21-3,.56-6.09c.3-2.61-2.51-5.11-5-5-3,.14-4.68,2.21-5,5a136.08,136.08,0,0,0,3.65,49.83,137.71,137.71,0,0,0,8.73,23.7,35.1,35.1,0,0,0,6.72,10.23,34.59,34.59,0,0,0,10.62,6.63c15.47,6.8,32.4,9.29,49.23,8.82,17.48-.48,34.75-4,51.67-8.17,4.31-1,8.6-2.15,12.89-3.26,2.19-.56,4.52-1.18,6.14-2.86a8,8,0,0,0,1.64-8.26c-2.52-7.43-7.83-13.29-14.17-17.72a50.76,50.76,0,0,0-4.45-2.76,5,5,0,0,0-5,8.64Z" transform="translate(-109.48 -169.64)"/><path class="cls-1" d="M291.62,296.41a19.5,19.5,0,0,1,2.73.48c.14,0,1,.24,1.06.37s-1.11-.5-.14-.06l.7.32c2.13,1,4.28,1.91,6.68,1.85a30.46,30.46,0,0,0,4.72-.9l.46-.07c.75-.14-1.13.12-.78.1s.74-.08,1.11-.1a15.93,15.93,0,0,1,2.29,0c.24,0,1.08.13,0,0s-.28-.05,0,0c.45.09.9.18,1.35.31s.79.28,1.19.4c.25.08-1.25-.6-.37-.15.24.13.49.24.73.38a13.06,13.06,0,0,1,1.19.73c.82.57,0,.18-.2-.17.09.21.54.46.71.61a15.33,15.33,0,0,1,1.12,1.16c.2.22.38.49.59.7,0,0-.64-.91-.37-.47.12.2.27.38.41.57.36.54.69,1.09,1,1.65a8.65,8.65,0,0,1,1.08,2.2s-.37-.92-.17-.38c.06.17.13.33.19.5.16.41.3.82.44,1.23.33,1,.6,1.93.85,2.91,1.62,6.26,3.4,12.47,5.47,18.61a85.94,85.94,0,0,1,2.73,8.7c.2.86-.08-1.63-.08-.59,0,.19,0,.39,0,.58.06.93.24-1.42.11-.74-.06.29-.35.95.09-.09s.17-.39,0-.14c-.4.65,1.09-1.16.43-.55l-.4.39c-.67.69,1.14-.78.45-.34-2.37,1.54-4.9,2.79-7.35,4.2-2.66,1.53-5.25,3.16-8,4.56-1.09.56-2.2,1.1-3.32,1.59l-.42.18c-.6.27,1.33-.55.72-.3l-.9.36c-.58.23-1.15.45-1.73.65-2.64.94-5.34,1.69-8.06,2.37-9.17,2.28-18.48,4-27.73,6-7.48,1.57-14.93,3.28-22.41,4.82-2,.41-4,.72-6,1l-3.6.5.51-.07-.41.06-1,.13-2,.26c-11.91,1.53-24,2.8-35.65,5.62-4.54,1.1-9.36,2.43-13.37,4.9-2.8,1.71-4.16,4.27-3.52,7.54a14,14,0,0,0,2.27,4.88,64,64,0,0,0,9.8,10.93c3.08,2.81,6.44,5.87,10.27,7.63,3.07,1.41,6.49,1.25,9.8,1.56,2.62.24,5.12-2.47,5-5a5.12,5.12,0,0,0-5-5c-1.07-.1-2.14-.2-3.21-.28l-1.38-.12-.92-.07c-1.2-.06.62,0,.69.13a4.44,4.44,0,0,0-.66-.18c-.85-.21.65.3.67.3s-.41-.2-.52-.25a20,20,0,0,1-2.09-1.26c-.37-.25-.73-.51-1.09-.77l-.62-.45c-.9-.68.71.56.11.08a80.27,80.27,0,0,1-10.28-9.83c-.33-.39-.66-.78-1-1.18-.17-.2-.32-.42-.49-.61s.74,1,.44.57c-.08-.11-.17-.22-.25-.34a22.1,22.1,0,0,1-1.48-2.23c-.18-.32-.31-.68-.5-1s.46,1.37.29.68a4.42,4.42,0,0,0-.15-.48c-.26-.73.08.69.09.84a1.93,1.93,0,0,1,0-.34c0-.36-.28,1.61-.13,1a2.08,2.08,0,0,1-.69,1.31c-.15.2-1.43,1.21-1,1l.44-.28c.4-.25.8-.48,1.22-.7s.78-.4,1.18-.58c.18-.09,1.09-.47.18-.09s.09,0,.33-.13a56.59,56.59,0,0,1,6.74-2.11,168.55,168.55,0,0,1,16.67-3.24l4.51-.66,2.25-.31,1-.13.26,0c2.88-.38,5.77-.74,8.65-1.11,5.06-.65,10.14-1.25,15.16-2.18,7.09-1.33,14.12-3.06,21.18-4.55,9.69-2,19.43-3.89,29.06-6.22a78,78,0,0,0,16.11-5.59c2.5-1.24,4.9-2.65,7.29-4.09,2.72-1.62,5.6-3,8.28-4.67s4.76-4.05,5-7.45c.2-2.64-.89-5.39-1.72-7.84-1.65-4.85-3.27-9.7-4.67-14.62-2.06-7.22-3.38-14.59-8.25-20.56a18.91,18.91,0,0,0-13-6.67,20.1,20.1,0,0,0-8.43,1c-.65.24,1-.05.28-.06s.5.08.47.11c-.2.12-1-.24-1.21-.32,0,0-.53-.18-.52-.19s1.13.51.15.07l-1-.47a21.55,21.55,0,0,0-6-1.8,5.5,5.5,0,0,0-3.86.51,5.07,5.07,0,0,0-2.29,3c-.54,2.36.72,5.77,3.49,6.15Z" transform="translate(-109.48 -169.64)"/><path class="cls-4" d="M217,295.37a108.3,108.3,0,0,1,24.22-5.62c17.19-2,34.6-.53,51.76,1.84" transform="translate(-109.48 -169.64)"/><path class="cls-4" d="M216.42,401.58c51.21,5.61,76.53,17.19,76.53,17.19" transform="translate(-109.48 -169.64)"/><polyline class="cls-4" points="82.86 1.47 90.97 9.47 99.07 1.46 107.18 9.46 115.28 1.45 123.39 9.45 131.49 1.44 139.61 9.44 147.71 1.43 155.82 9.43 163.92 1.42 172.03 9.42 180.13 1.41 188.25 9.41 196.35 1.41 204.47 9.4 212.57 1.4"/><polyline class="cls-4" points="85.81 362.11 93.92 370.1 102.02 362.1 110.13 370.09 118.23 362.09 126.34 370.08 134.44 362.08 142.55 370.07 150.65 362.07 158.76 370.06 166.86 362.06 174.97 370.05 183.08 362.05 191.19 370.05 199.29 362.04 207.41 370.04 215.52 362.03"/><path class="cls-5" d="M147.92,450.16c-7,15.89-16.06,32.33-15.23,49.66a175.86,175.86,0,0,0,2.5,21.43" transform="translate(-109.48 -169.64)"/><path class="cls-1" d="M137.65,533.07c-3.19-5.15-8.1-11.35-12.69-14.89l10,1.5,8.65-5.24C140.73,519.47,138.59,527.09,137.65,533.07Z" transform="translate(-109.48 -169.64)"/></svg>