<svg id="Layer_1" data-name="Layer 1" xmlns="http://www.w3.org/2000/svg" viewBox="0 0 220.45 370.1"><defs><style>.cls-1{fill:#231f20;}.cls-2,.cls-3{fill:#fff;}.cls-3,.cls-4,.cls-5{stroke:#231f20;stroke-miterlimit:10;}.cls-4,.cls-5{fill:none;}.cls-4{stroke-dasharray:3;}.cls-5{stroke-dasharray:3 3;}</style></defs><path class="cls-1" d="M211.92,254.22c-9.07,1.24-18.16,2.34-27.28,3.17a2.57,2.57,0,0,0-2.5,2.5,2.52,2.52,0,0,0,2.5,2.5c9.57-.87,19.1-2.05,28.61-3.35,1.34-.18,2.07-1.89,1.75-3.07a2.58,2.58,0,0,0-3.08-1.75Z" transform="translate(-111.99 -170.34)"/><path class="cls-2" d="M197.21,266.61l-3.58-1.78.9,3.42c4.37-8.79,9.44-17.6,16-25H207l3,2.67v-3.54c-6.6,7.43-11.76,16.23-16.17,25.1-1.43,2.87,2.88,5.4,4.32,2.52,4.21-8.47,9.08-17,15.39-24.08a2.55,2.55,0,0,0,0-3.54l-3-2.66a2.54,2.54,0,0,0-3.54,0c-6.84,7.7-12.2,16.79-16.77,26a2.53,2.53,0,0,0,.9,3.42l3.58,1.78C197.56,272.35,200.1,268,197.21,266.61Z" transform="translate(-111.99 -170.34)"/><path class="cls-1" d="M117,535.75q2.27-26.89,7.19-53.48t12.47-52.71q7.53-26,17.58-51.23,4.86-12.21,10.34-24.16A192.49,192.49,0,0,1,176,332.43a92.56,92.56,0,0,1,15.08-18.73A75.9,75.9,0,0,1,212,300.06c1.85-.84,3.75-1.58,5.66-2.28a2.56,2.56,0,0,0,1.74-3.08,2.51,2.51,0,0,0-3.07-1.74,85.56,85.56,0,0,0-22.89,12.28A86.44,86.44,0,0,0,176,323.5c-10,13.92-16.88,30-23.45,45.78Q142,394.62,134,420.91t-13.38,53.44q-5.35,27-8,54.48-.33,3.45-.62,6.92a2.51,2.51,0,0,0,2.5,2.5,2.56,2.56,0,0,0,2.5-2.5Z" transform="translate(-111.99 -170.34)"/><path class="cls-2" d="M169.79,356.09l-4-.45,2.5,2.5c1.78-15.41,5.87-30.51,10-45.41q1.53-5.43,3.17-10.83l-3.07,1.75,3.82,1.18-1.75-3.08a416.53,416.53,0,0,0-11.07,42.86q-1.35,6.94-2.17,14a2.51,2.51,0,0,0,2.5,2.5,2.56,2.56,0,0,0,2.5-2.5,223.39,223.39,0,0,1,5.81-29.42c2.23-8.75,4.61-17.46,7.26-26.09a2.56,2.56,0,0,0-1.75-3.08l-3.82-1.17a2.54,2.54,0,0,0-3.08,1.74,416.34,416.34,0,0,0-11.22,43.51q-1.35,7-2.17,14.06c-.17,1.44,1.29,2.36,2.5,2.5l4,.45a2.52,2.52,0,0,0,2.5-2.5A2.55,2.55,0,0,0,169.79,356.09Z" transform="translate(-111.99 -170.34)"/><line class="cls-3" x1="104.99" y1="12.8" x2="104.99" y2="360.85"/><line class="cls-3" x1="180.96" y1="12.8" x2="180.96" y2="360.85"/><path class="cls-1" d="M184.64,257.39c-9.32.84-18.67,1.39-28,1.49-3.22,0-3.23,5,0,5,9.36-.1,18.71-.65,28-1.49a2.56,2.56,0,0,0,2.5-2.5,2.52,2.52,0,0,0-2.5-2.5Z" transform="translate(-111.99 -170.34)"/><path class="cls-1" d="M293,225.9c9.36-.12,20.46-.66,28.24,5.52,3.07,2.43,5.65,5.88,6.17,9.86.08.62.29,1.85-.12,2.42.11-.15.32,0-.24,0s-1,0-1.56,0c-2.86-.14-5.71-.23-8.57-.27-22.52-.33-44.95,2.28-67.22,5.4-12.58,1.76-25.14,3.7-37.73,5.42a2.51,2.51,0,0,0-1.74,3.08,2.55,2.55,0,0,0,3.07,1.74c23.7-3.23,47.31-7.29,71.15-9.34a316.65,316.65,0,0,1,35.65-1.24c1.39,0,2.78.09,4.16.15a13.27,13.27,0,0,0,4.49-.2c2.65-.81,3.77-3.46,3.74-6a19.12,19.12,0,0,0-5.66-12.61c-8.72-9.08-22.15-9-33.83-8.86-3.22,0-3.23,5,0,5Z" transform="translate(-111.99 -170.34)"/><path class="cls-4" d="M217,236.65q1.23-.9,2.52-1.68c6.32-3.82,13.71-5.39,21-6.66A333.39,333.39,0,0,1,293,223.4" transform="translate(-111.99 -170.34)"/><path class="cls-1" d="M212,244.62a45.19,45.19,0,0,1,6-5.62l-.5.4c.25-.2.51-.4.78-.59a2.68,2.68,0,0,0,1.14-1.5,2.53,2.53,0,0,0-.25-1.92,2.5,2.5,0,0,0-3.42-.9,47.62,47.62,0,0,0-7.24,6.59,2.64,2.64,0,0,0-.73,1.77,2.5,2.5,0,0,0,4.27,1.77Z" transform="translate(-111.99 -170.34)"/><path class="cls-1" d="M196.32,269.14c4.29-8.63,9.26-17.28,15.69-24.52,2.13-2.4-1.39-6-3.54-3.54-6.72,7.57-12,16.5-16.47,25.54-1.43,2.87,2.88,5.41,4.32,2.52Z" transform="translate(-111.99 -170.34)"/><path class="cls-1" d="M183.44,302.49a224.62,224.62,0,0,1,12.88-33.35,2.57,2.57,0,0,0-.9-3.42,2.53,2.53,0,0,0-3.42.9,232.93,232.93,0,0,0-13.38,34.54c-1,3.08,3.88,4.4,4.82,1.33Z" transform="translate(-111.99 -170.34)"/><path class="cls-1" d="M170.3,358.36a220.91,220.91,0,0,1,5.42-27.92c2.35-9.38,4.89-18.71,7.72-27.95.95-3.08-3.87-4.4-4.82-1.33-2.88,9.39-5.46,18.89-7.84,28.42a228.88,228.88,0,0,0-5.48,28.78,2.51,2.51,0,0,0,2.5,2.5,2.55,2.55,0,0,0,2.5-2.5Z" transform="translate(-111.99 -170.34)"/><path class="cls-1" d="M291.69,421c5.47,3.05,10.53,7,13.61,12.59.37.66.71,1.34,1,2a6,6,0,0,1,.81,2.37c0,.25,0,0,0,0a1.23,1.23,0,0,1-.33.23,21.59,21.59,0,0,1-2.5.71c-4,1-8,2-11.95,3-15.73,3.89-31.69,7.29-47.92,8-15.16.69-30.55-.9-44.81-6.34a50.32,50.32,0,0,1-9.91-4.79,20.65,20.65,0,0,1-6.65-7.88,113.78,113.78,0,0,1-8.36-21.06,128.89,128.89,0,0,1-5-45.46q.21-3,.56-6.09a2.51,2.51,0,0,0-2.5-2.5,2.57,2.57,0,0,0-2.5,2.5,133,133,0,0,0,12,72.27,33.32,33.32,0,0,0,6.33,9.72,32.89,32.89,0,0,0,10.11,6.24c15.06,6.62,31.61,8.94,48,8.48,17.26-.47,34.29-4,51-8.08,4.3-1.05,8.6-2.15,12.89-3.26,1.76-.45,3.71-.87,5-2.22a5.56,5.56,0,0,0,1-5.83c-2.3-6.77-7.24-12.18-13-16.22a50.76,50.76,0,0,0-4.45-2.76c-2.81-1.57-5.34,2.75-2.52,4.32Z" transform="translate(-111.99 -170.34)"/><path class="cls-1" d="M292.28,294c3.38.47,7.08.76,10.15,2.37a14.62,14.62,0,0,1,5.79,5.8c2.91,5,3.7,11.11,3.19,16.82-1.06,11.72-8.07,22.45-16.71,30.09-9.83,8.69-22.4,13.81-34.66,18-13.1,4.49-26.51,8.13-39.1,14a98.6,98.6,0,0,0-10.14,5.43c-2.81,1.74-6.14,3.49-6.87,7a7.74,7.74,0,0,0,2.49,7.46c2.87,2.4,7,2,10.55,2.31a2.52,2.52,0,0,0,2.5-2.5,2.55,2.55,0,0,0-2.5-2.5c-1.83-.17-3.67-.35-5.51-.47a2.75,2.75,0,0,1-2.07-.9,4.39,4.39,0,0,1-.44-.7c0,.07-.22-1.16-.2-.76a2.37,2.37,0,0,1,.53-1.84,17,17,0,0,1,3.67-2.56q2.25-1.4,4.57-2.67c3-1.63,6.07-3.1,9.19-4.45,12.56-5.43,25.88-8.81,38.72-13.46C277.85,366,290.3,360.28,300,351c8.76-8.39,15.28-19.64,16.44-31.86.63-6.67-.51-13.88-3.95-19.7a19.61,19.61,0,0,0-7.16-7.25c-3.58-2-7.67-2.49-11.67-3.05a2.59,2.59,0,0,0-3.07,1.75c-.32,1.17.4,2.89,1.74,3.07Z" transform="translate(-111.99 -170.34)"/><path class="cls-4" d="M217,295.37a108.3,108.3,0,0,1,24.22-5.62c17.19-2,34.6-.53,51.76,1.84" transform="translate(-111.99 -170.34)"/><path class="cls-4" d="M216.42,401.58c51.21,5.61,76.53,17.19,76.53,17.19" transform="translate(-111.99 -170.34)"/><polyline class="cls-4" points="80.36 0.77 88.46 8.76 96.56 0.76 104.68 8.75 112.78 0.75 120.89 8.74 128.99 0.74 137.1 8.73 145.2 0.73 153.31 8.73 161.41 0.72 169.52 8.72 177.62 0.71 185.74 8.71 193.84 0.7 201.96 8.7 210.07 0.69"/><polyline class="cls-4" points="83.3 361.4 91.41 369.4 99.51 361.39 107.62 369.39 115.72 361.38 123.83 369.38 131.93 361.38 140.04 369.37 148.15 361.37 156.26 369.36 164.36 361.36 172.47 369.35 180.57 361.35 188.69 369.34 196.79 361.34 204.91 369.33 213.01 361.33"/><path class="cls-5" d="M147.92,450.16c-7,15.89-16.06,32.33-15.23,49.66a186,186,0,0,0,3.63,27.36" transform="translate(-111.99 -170.34)"/><path class="cls-1" d="M137.65,533.07a30.3,30.3,0,0,0-6.47-7.34l5,.67,4.28-2.69A30,30,0,0,0,137.65,533.07Z" transform="translate(-111.99 -170.34)"/></svg>