<svg id="Layer_1" data-name="Layer 1" xmlns="http://www.w3.org/2000/svg" viewBox="0 0 158.4 538.05"><defs><style>.cls-1{fill:#231f20;}.cls-2{fill:#fff;}.cls-10,.cls-11,.cls-3,.cls-4,.cls-5,.cls-6,.cls-7,.cls-8,.cls-9{fill:none;stroke:#231f20;stroke-miterlimit:10;}.cls-4{stroke-dasharray:1.07 1.07;}.cls-5{stroke-dasharray:1.03 1.03;}.cls-6{stroke-dasharray:1.03 1.03;}.cls-7{stroke-dasharray:1.02 1.02;}.cls-8{stroke-dasharray:1.02 1.02;}.cls-9{stroke-dasharray:0.94 0.94;}.cls-10{stroke-dasharray:1.04 1.04;}.cls-11{stroke-dasharray:0.89 0.89;}</style></defs><path class="cls-1" d="M239.66,354.07a105,105,0,0,1,11,16.11,2.5,2.5,0,0,0,4.32-2.52,111.71,111.71,0,0,0-11.82-17.13,2.52,2.52,0,0,0-3.53,0,2.55,2.55,0,0,0,0,3.54Z" transform="translate(-152.73 -111.15)"/><path class="cls-2" d="M245.86,366.49l-2.44-3.17-.89,3.42A159.46,159.46,0,0,0,257.7,354h-3.54l2.82,2.83v-3.53a151.61,151.61,0,0,1-14.54,12.34,2.58,2.58,0,0,0-.9,3.42,2.53,2.53,0,0,0,3.42.9,162.66,162.66,0,0,0,15.56-13.13,2.53,2.53,0,0,0,0-3.53l-2.82-2.84a2.55,2.55,0,0,0-3.54,0,147.5,147.5,0,0,1-14.16,12c-1,.74-1.8,2.24-.9,3.42l2.44,3.17a2.58,2.58,0,0,0,3.42.9A2.53,2.53,0,0,0,245.86,366.49Z" transform="translate(-152.73 -111.15)"/><path class="cls-1" d="M235.11,381.69l-1.63-1.25-.1-.08-.51-.4-.82-.63c-1.11-.87-2.23-1.75-3.33-2.64q-3.32-2.67-6.5-5.5a2.5,2.5,0,0,0-3.53,3.54c4.45,4,9.16,7.65,13.9,11.28a2.5,2.5,0,0,0,3.42-.9,2.58,2.58,0,0,0-.9-3.42Z" transform="translate(-152.73 -111.15)"/><path class="cls-2" d="M222.78,383.32l-2.53-3.1v3.54c4.06-3.3,8-6.26,12.19-9.42l-3.42-.9,2.4,3.21.89-3.42c-4.41,3.3-8.8,6.62-13.07,10.09a2.52,2.52,0,0,0,0,3.54,2.58,2.58,0,0,0,3.54,0c4-3.26,7.89-6.2,12.06-9.32,1-.73,1.77-2.24.89-3.42l-2.39-3.2c-.74-1-2.25-1.78-3.42-.9-4.46,3.34-8.89,6.69-13.21,10.2-1.12.91-.78,2.58,0,3.54l2.53,3.1a2.51,2.51,0,0,0,3.54,0A2.58,2.58,0,0,0,222.78,383.32Z" transform="translate(-152.73 -111.15)"/><path class="cls-1" d="M226.17,420.35a93.79,93.79,0,0,1-13.71.8,2.52,2.52,0,0,0-2.5,2.5,2.55,2.55,0,0,0,2.5,2.5,93.79,93.79,0,0,0,13.71-.8,2.56,2.56,0,0,0,2.5-2.5c0-1.22-1.11-2.67-2.5-2.5Z" transform="translate(-152.73 -111.15)"/><path class="cls-1" d="M211.87,387a111.08,111.08,0,0,0-11.41,11.65,2.54,2.54,0,0,0,0,3.53,2.51,2.51,0,0,0,3.53,0,110.09,110.09,0,0,1,11.42-11.64,2.54,2.54,0,0,0,0-3.54,2.56,2.56,0,0,0-3.54,0Z" transform="translate(-152.73 -111.15)"/><path class="cls-1" d="M215.41,364.56A61.36,61.36,0,0,1,204.59,349a2.51,2.51,0,0,0-3.42-.89,2.55,2.55,0,0,0-.89,3.42,67,67,0,0,0,11.59,16.54,2.5,2.5,0,1,0,3.54-3.54Z" transform="translate(-152.73 -111.15)"/><path class="cls-2" d="M226.65,440.06a183.63,183.63,0,0,1-8.88-20.89c-2.52-6.92-4.94-13.9-7.16-20.92s-4.07-14.22-4.31-21.61a50.66,50.66,0,0,1,3-18.85A53,53,0,0,1,221,339.16h-3.54l2.88,2.78v-3.53a53.45,53.45,0,0,0-15,36c-.08,7.4,1.55,14.73,3.67,21.78s4.65,14.21,7.16,21.24a196.36,196.36,0,0,0,9.79,23.29l.9-3.42-3.56,1.83c-2.86,1.47-.33,5.78,2.53,4.31l3.55-1.83a2.54,2.54,0,0,0,.9-3.42c-6.46-12.61-11-26.25-15.31-39.7-2.21-6.83-4.19-13.84-4.56-21a46.73,46.73,0,0,1,2.58-17.86,49,49,0,0,1,10.93-17.69,2.53,2.53,0,0,0,0-3.53L221,335.63a2.55,2.55,0,0,0-3.54,0,57.63,57.63,0,0,0-16.14,37.51c-.28,7.75,1.26,15.49,3.41,22.9s4.73,14.62,7.29,21.84a203,203,0,0,0,10.34,24.71C223.8,445.45,228.12,442.92,226.65,440.06Z" transform="translate(-152.73 -111.15)"/><path class="cls-1" d="M199,328.86a125.13,125.13,0,0,1-1.31-16.53,2.5,2.5,0,0,0-5,0,135.29,135.29,0,0,0,1.49,17.86,2.51,2.51,0,0,0,3.07,1.74,2.56,2.56,0,0,0,1.75-3.07Z" transform="translate(-152.73 -111.15)"/><path class="cls-2" d="M192.12,325.19l-1.26-3.79-1.75,3.07c1.1-.36,2.21-.68,3.34-1,.6-.14,1.2-.26,1.8-.38L195,323l.51-.08c.28,0,.34-.05.18,0l.18,0,.51-.06.76-.07c.55,0,1.1-.08,1.66-.09,1.13,0,2.27,0,3.41.06l-2.5-2.5-.29,4,2.5-2.5a34.26,34.26,0,0,0-12.9,1.73,2.5,2.5,0,1,0,1.33,4.82c1-.34,2-.63,3.09-.88l1.42-.29.76-.14.57-.08.43-.05.76-.08c.51,0,1-.07,1.53-.08,1,0,2,0,3,.05a2.53,2.53,0,0,0,2.5-2.5l.29-4a2.55,2.55,0,0,0-2.5-2.5,38.32,38.32,0,0,0-14.45,1.92,2.52,2.52,0,0,0-1.74,3.07l1.25,3.8a2.5,2.5,0,1,0,4.83-1.33Z" transform="translate(-152.73 -111.15)"/><path class="cls-1" d="M218,331.29a88.55,88.55,0,0,1,10.62,10.15,2.52,2.52,0,0,0,3.53,0,2.55,2.55,0,0,0,0-3.54,87.76,87.76,0,0,0-10.62-10.14,2.69,2.69,0,0,0-1.76-.74,2.54,2.54,0,0,0-1.77.74c-.82.89-1.1,2.67,0,3.53Z" transform="translate(-152.73 -111.15)"/><path class="cls-2" d="M223.85,338.41,221,335.63v3.53a54.83,54.83,0,0,1,5.43-4.9c-.3.24.32-.24.39-.29.23-.18.47-.35.71-.52.5-.36,1-.71,1.52-1.06,1.1-.74,2.24-1.43,3.4-2.09l-3.42-.9,2,3.48.89-3.42a51.75,51.75,0,0,0-11.55,9,2.5,2.5,0,1,0,3.53,3.53,48.17,48.17,0,0,1,5.1-4.58l.29-.22.71-.52,1.37-.95c1-.67,2-1.29,3.08-1.89a2.54,2.54,0,0,0,.89-3.42l-2-3.48a2.53,2.53,0,0,0-3.42-.9,56.13,56.13,0,0,0-12.46,9.65,2.53,2.53,0,0,0,0,3.53l2.88,2.78a2.5,2.5,0,0,0,3.53-3.53Z" transform="translate(-152.73 -111.15)"/><path class="cls-1" d="M193.37,408.49A70.55,70.55,0,0,0,186,425a2.5,2.5,0,0,0,4.82,1.33A64.42,64.42,0,0,1,197.68,411a2.5,2.5,0,1,0-4.31-2.52Z" transform="translate(-152.73 -111.15)"/><path class="cls-2" d="M197.75,420.81a55.64,55.64,0,0,1-15-7.44l.89,3.42,2.29-3.29-3.43.9a56.16,56.16,0,0,0,15.11,7.41l-1.74-3.07-1.19,3.82a2.5,2.5,0,0,0,4.82,1.33l1.19-3.82a2.55,2.55,0,0,0-1.75-3.08A51.66,51.66,0,0,1,185,410.08a2.54,2.54,0,0,0-3.42.9l-2.28,3.28a2.54,2.54,0,0,0,.89,3.42,60.33,60.33,0,0,0,16.21,7.95,2.52,2.52,0,0,0,3.07-1.74A2.54,2.54,0,0,0,197.75,420.81Z" transform="translate(-152.73 -111.15)"/><path class="cls-1" d="M255.29,381.06a45,45,0,0,1,2,14.67,2.5,2.5,0,0,0,5,0,50.91,50.91,0,0,0-2.16-16,2.5,2.5,0,0,0-4.83,1.32Z" transform="translate(-152.73 -111.15)"/><path class="cls-1" d="M239.6,440.81c-4.69,7.82-9.3,15.68-12.82,24.12a2.51,2.51,0,0,0,1.75,3.07,2.57,2.57,0,0,0,3.08-1.74c3.34-8,7.85-15.5,12.3-22.93,1.66-2.76-2.66-5.28-4.31-2.52Z" transform="translate(-152.73 -111.15)"/><path class="cls-2" d="M242,463.55a157.5,157.5,0,0,1-15.35-23.49l-.89,3.42,3.55-1.83-3.42-.89a154.08,154.08,0,0,0,15,22.88l.9-3.42-3.17,2.44a2.58,2.58,0,0,0-.9,3.42,2.51,2.51,0,0,0,3.42.89l3.17-2.43c1-.74,1.8-2.25.9-3.42a153.66,153.66,0,0,1-15-22.89,2.55,2.55,0,0,0-3.42-.89l-3.56,1.83a2.54,2.54,0,0,0-.89,3.42,157.17,157.17,0,0,0,15.34,23.49,2.57,2.57,0,0,0,3.42.89A2.51,2.51,0,0,0,242,463.55Z" transform="translate(-152.73 -111.15)"/><path class="cls-1" d="M259,325.38a49.1,49.1,0,0,1,22.37,5.13c2.86,1.48,5.39-2.83,2.52-4.31A54.53,54.53,0,0,0,259,320.38c-3.22,0-3.22,5,0,5Z" transform="translate(-152.73 -111.15)"/><path class="cls-2" d="M270.85,337.93l-3.65-1.64.9,3.42c5.1-11.61,3.06-24.32,1-36.41l-1.75,3.08,3.94-.67L268.25,304c1.92,11.4,4,23.89-.82,34.86a2.58,2.58,0,0,0,.9,3.42,2.51,2.51,0,0,0,3.42-.89c5.45-12.4,3.5-25.8,1.32-38.71-.24-1.43-1.86-2-3.08-1.75l-3.94.67c-1.42.24-1.95,1.86-1.75,3.07,1.78,10.55,3.95,22.38-.52,32.56-.5,1.13-.44,2.82.9,3.42l3.65,1.63a2.57,2.57,0,0,0,3.42-.89A2.52,2.52,0,0,0,270.85,337.93Z" transform="translate(-152.73 -111.15)"/><path class="cls-1" d="M254.93,409.56A96.47,96.47,0,0,1,247.58,427a2.5,2.5,0,0,0,4.31,2.53,102.51,102.51,0,0,0,7.86-18.62,2.5,2.5,0,1,0-4.82-1.32Z" transform="translate(-152.73 -111.15)"/><path class="cls-2" d="M244.77,419.37c.92.07.17.71.33.89s2.23-.31,2.55-.36c1.89-.3,3.78-.57,5.68-.79,2.23-.26,4.46-.47,6.7-.6,1.11-.07,2.21-.11,3.32-.13a20.74,20.74,0,0,0,2.66,0c-.26.71-.46-1-.47-.53,0-.12.18-.25.17-.37.49-.12.46-.15-.09-.11H265l-1.53,0c-2.13,0-4.26.17-6.38.36s-4.35.46-6.52.76c-1.91.26-3.84.71-5.77.87a2.57,2.57,0,0,0-2.5,2.5,2.52,2.52,0,0,0,2.5,2.5c2.3-.19,4.59-.7,6.87-1s4.57-.56,6.86-.73,4.74-.21,7.12-.28,4.27-1.18,4.81-3.53a4.55,4.55,0,0,0-3.26-5.32,12.74,12.74,0,0,0-3.38-.12c-1.25,0-2.51.06-3.76.14-4.74.27-9.45.9-14.14,1.63a9,9,0,0,0-3.57,1,4.51,4.51,0,0,0-2,3.11,4.57,4.57,0,0,0,4.43,5.15,2.52,2.52,0,0,0,2.5-2.5A2.55,2.55,0,0,0,244.77,419.37Z" transform="translate(-152.73 -111.15)"/><path class="cls-1" d="M284.82,412.36c-5.66,3.17-12.5,2.93-18.78,3-3.22,0-3.22,5,0,5,7.22-.06,14.82,0,21.3-3.66,2.81-1.57.29-5.89-2.52-4.32Z" transform="translate(-152.73 -111.15)"/><path class="cls-1" d="M257.28,395.73q-.06,1.8-.24,3.6c-.12,1.2-.22,1.88-.45,3.18a63.28,63.28,0,0,1-1.66,7.05,2.5,2.5,0,1,0,4.82,1.32,61.26,61.26,0,0,0,2.53-15.15,2.52,2.52,0,0,0-2.5-2.5,2.56,2.56,0,0,0-2.5,2.5Z" transform="translate(-152.73 -111.15)"/><path class="cls-2" d="M285.66,424.21c.48,0,.38.33,0-.23a5.37,5.37,0,0,0-.62-.64c-.52-.53-1.06-1.06-1.6-1.57q-1.65-1.56-3.37-3c-2.25-1.92-4.57-3.74-6.92-5.54l-4.64-3.54-14.1-10.75L252,397.11c-.22-.16-.44-.32-.65-.49-.48-.39.17.06.22.3.09.5-.2.34-.43.59s-.71-.49-.1.08c.1.1.23.18.34.27.66.49,1.31,1,2,1.49l14.09,10.74,4.87,3.71c2.49,1.91,5,3.84,7.32,5.89q1.88,1.62,3.65,3.34c.59.57,1.14,1.18,1.73,1.75.87.84.07.14.13.05.2-.3,0-.58.49-.62a2.57,2.57,0,0,0-2.5,2.5,2.53,2.53,0,0,0,2.5,2.5,4.65,4.65,0,0,0,4-2.57,4.47,4.47,0,0,0-.61-4.81,54,54,0,0,0-7.08-6.69c-3.08-2.58-6.3-5-9.5-7.45l-15-11.42a44.92,44.92,0,0,0-4.23-3.18,4.54,4.54,0,0,0-6.68,4.19,5.07,5.07,0,0,0,2.43,3.8l14.42,11,5,3.78c2.86,2.18,5.71,4.37,8.44,6.72,1.37,1.18,2.71,2.39,4,3.66,1.5,1.48,2.55,2.79,4.79,3a2.52,2.52,0,0,0,2.5-2.5A2.55,2.55,0,0,0,285.66,424.21Z" transform="translate(-152.73 -111.15)"/><path class="cls-1" d="M210.56,482.42a102.8,102.8,0,0,0,22.76,10.11c3.08,1,4.39-3.85,1.33-4.82a97.37,97.37,0,0,1-21.57-9.61c-2.75-1.68-5.27,2.64-2.52,4.32Z" transform="translate(-152.73 -111.15)"/><path class="cls-1" d="M267,493.06a170.16,170.16,0,0,0-11.35-15.51,2.52,2.52,0,0,0-3.54,0,2.58,2.58,0,0,0,0,3.54,158.5,158.5,0,0,1,10.58,14.5,2.5,2.5,0,1,0,4.31-2.53Z" transform="translate(-152.73 -111.15)"/><path class="cls-1" d="M242.48,637.69c-1.68-9.92-3.46-20.37-1-30.32,2.23-9.22,8.23-16.75,13.23-24.6,10.74-16.83,14.08-36.56,17.05-56,.88-5.68,1.64-11.48,1.07-17.24a38.9,38.9,0,0,0-5.78-16.5c-1.67-2.74-6-.23-4.31,2.53a33.29,33.29,0,0,1,5,13.51,58.46,58.46,0,0,1-.63,15,288.45,288.45,0,0,1-5.4,29,91.55,91.55,0,0,1-11,26.61c-5,7.91-10.92,15.43-13.6,24.54-3.35,11.35-1.37,23.36.56,34.77a2.5,2.5,0,1,0,4.82-1.33Z" transform="translate(-152.73 -111.15)"/><path class="cls-1" d="M219.8,497.47c-.51,16.11,3.46,32,5.92,47.85s4.46,31.62,5.8,47.51c.73,8.69,1,17.54-1.26,26-.84,3.11,4,4.44,4.82,1.33,2.07-7.68,2.23-15.68,1.72-23.58-.52-8.07-1.44-16.14-2.39-24.17-1.89-16.18-4.45-32.23-7.19-48.28-1.51-8.84-2.71-17.71-2.42-26.69.1-3.22-4.9-3.21-5,0Z" transform="translate(-152.73 -111.15)"/><path class="cls-1" d="M197.71,312.33a73.9,73.9,0,0,1,5-28.18c3.5-8.74,8.35-16.87,11.8-25.64,6.81-17.34,8.88-36.14,9.23-54.64.19-10.55-.17-21.09-.56-31.63-.12-3.21-5.12-3.23-5,0,.69,18.51,1.36,37.2-1.12,55.62a127.31,127.31,0,0,1-6.43,26.81c-3.2,8.79-7.94,16.87-11.62,25.45a74.07,74.07,0,0,0-4.89,15.59,87.36,87.36,0,0,0-1.39,16.62c0,3.22,5,3.22,5,0Z" transform="translate(-152.73 -111.15)"/><path class="cls-1" d="M204.59,349A71.89,71.89,0,0,1,199,328.86a2.53,2.53,0,0,0-3.08-1.75,2.57,2.57,0,0,0-1.74,3.08,75.75,75.75,0,0,0,6.08,21.37,2.52,2.52,0,0,0,3.42.89,2.55,2.55,0,0,0,.89-3.42Z" transform="translate(-152.73 -111.15)"/><path class="cls-1" d="M222.22,371.19c-2.36-2.11-4.65-4.31-6.81-6.63a2.53,2.53,0,0,0-3.54,0,2.55,2.55,0,0,0,0,3.54c2.16,2.31,4.45,4.51,6.82,6.63a2.63,2.63,0,0,0,1.76.73,2.5,2.5,0,0,0,1.77-4.27Z" transform="translate(-152.73 -111.15)"/><path class="cls-1" d="M252.38,394.86q-8.64-6.58-17.27-13.17a2.52,2.52,0,0,0-3.42.9,2.56,2.56,0,0,0,.9,3.42q8.61,6.6,17.26,13.16a2.51,2.51,0,0,0,3.42-.89,2.57,2.57,0,0,0-.89-3.42Z" transform="translate(-152.73 -111.15)"/><path class="cls-1" d="M287.43,422.94c-4.95-5.23-10.74-9.55-16.44-13.9l-18.61-14.18a2.51,2.51,0,0,0-3.42.89,2.56,2.56,0,0,0,.89,3.42l18.22,13.89c5.5,4.19,11.05,8.37,15.82,13.42,2.22,2.34,5.75-1.2,3.54-3.54Z" transform="translate(-152.73 -111.15)"/><path class="cls-1" d="M270.07,482.41l13.13-10.08c3.92-3,7.94-5.95,10.94-9.93,5.55-7.37,5.54-17.53,2.24-25.83a44,44,0,0,0-8.95-13.63c-2.2-2.36-5.73,1.18-3.54,3.54,5.56,6,9.77,13.37,9.76,21.72A19,19,0,0,1,290.44,459c-2.36,3.45-5.9,6-9.18,8.54L267.55,478.1a2.58,2.58,0,0,0-.9,3.42,2.51,2.51,0,0,0,3.42.89Z" transform="translate(-152.73 -111.15)"/><path class="cls-2" d="M223,494.36a90.35,90.35,0,0,1,1.14-9.42c.28-1.55.59-3.09.94-4.62.1-.42.19-.83.29-1.24.05-.18.09-.35.13-.53.13-.39.14-.46,0-.22.08.24-.67.17-.06.08-.22,0-.33.18-.58,0s-.2-.49-.14-.09c0,0-.15-.56-.09-.52a20.64,20.64,0,0,1-.59,2.49c-.35,1.54-.66,3.1-.92,4.66a97.19,97.19,0,0,0-1.17,10.08,2.52,2.52,0,0,0,2.5,2.5,2.55,2.55,0,0,0,2.5-2.5,86.41,86.41,0,0,1,1-8.94c.26-1.5.55-3,.89-4.47s1-3.2.59-4.79a4.54,4.54,0,0,0-7.51-2.05c-1.13,1.08-1.37,2.7-1.7,4.16s-.66,3.07-.94,4.62A102.42,102.42,0,0,0,218,494.36a2.5,2.5,0,0,0,5,0Z" transform="translate(-152.73 -111.15)"/><path class="cls-2" d="M267.86,481.16c-3.42,2.63-6.79,5.45-10.41,7.82a28.15,28.15,0,0,1-2.71,1.58c-.4.21-.81.4-1.22.58s-1.1.6-1.4.5c-.12,0-.18-.05-.12-.18a2.37,2.37,0,0,1,.59-.25c.65-.24,1.3-.52,1.92-.82a46.39,46.39,0,0,0,7.71-5.25l5-3.81a1.93,1.93,0,0,0,.67-2.56,1.88,1.88,0,0,0-2.57-.67l-4.95,3.8c-2.77,2.13-5.57,4.54-8.88,5.75a4.6,4.6,0,0,0-2.68,1.92,3.88,3.88,0,0,0,2.48,5.72,6.36,6.36,0,0,0,3.94-.82,43.91,43.91,0,0,0,9.14-5.9l5.43-4.17a1.94,1.94,0,0,0,.67-2.57,1.89,1.89,0,0,0-2.57-.67Z" transform="translate(-152.73 -111.15)"/><path class="cls-1" d="M222.66,477.36a96.17,96.17,0,0,0-2.86,20.11,2.5,2.5,0,0,0,5,0,90.2,90.2,0,0,1,2.68-18.78c.79-3.12-4-4.45-4.82-1.33Z" transform="translate(-152.73 -111.15)"/><path class="cls-1" d="M252.78,493.93a31.57,31.57,0,0,0,8.78-5c2.85-2.16,5.67-4.36,8.51-6.54A2.58,2.58,0,0,0,271,479a2.51,2.51,0,0,0-3.42-.89c-2.76,2.12-5.51,4.25-8.28,6.36-1.25.94-2.51,1.87-3.84,2.69a18.81,18.81,0,0,1-4,2,2.56,2.56,0,0,0-1.74,3.07,2.52,2.52,0,0,0,3.07,1.75Z" transform="translate(-152.73 -111.15)"/><path class="cls-1" d="M233.32,492.53c6.24,2,13,3.44,19.46,1.4a2.5,2.5,0,1,0-1.33-4.82c-5.55,1.77-11.37.29-16.8-1.4a2.5,2.5,0,1,0-1.33,4.82Z" transform="translate(-152.73 -111.15)"/><path class="cls-1" d="M186,425c-2.73,9.45-3.13,19.66.1,29.05A49.42,49.42,0,0,0,199.36,474a72.4,72.4,0,0,0,11.2,8.42c2.74,1.69,5.26-2.63,2.52-4.32a57.33,57.33,0,0,1-16.48-14.61,39.76,39.76,0,0,1-7.83-21.9,47.94,47.94,0,0,1,2-15.24c.9-3.1-3.93-4.42-4.82-1.33Z" transform="translate(-152.73 -111.15)"/><path class="cls-1" d="M200.46,398.62a83.8,83.8,0,0,0-7.09,9.87,2.51,2.51,0,0,0,.89,3.42,2.56,2.56,0,0,0,3.42-.9q1.48-2.43,3.14-4.74c.54-.76,1.1-1.51,1.66-2.25.21-.27-.28.37-.07.1.08-.09.15-.19.22-.28l.43-.54.93-1.15a2.65,2.65,0,0,0,.74-1.77,2.51,2.51,0,0,0-4.27-1.76Z" transform="translate(-152.73 -111.15)"/><path class="cls-1" d="M218,381.77c-2.07,1.69-4.12,3.42-6.11,5.2a2.53,2.53,0,0,0-.73,1.77,2.5,2.5,0,0,0,4.27,1.77c2-1.78,4-3.51,6.1-5.2a2.5,2.5,0,0,0,.74-1.77,2.58,2.58,0,0,0-.74-1.77,2.52,2.52,0,0,0-1.76-.73l-.67.09a2.5,2.5,0,0,0-1.1.64Z" transform="translate(-152.73 -111.15)"/><path class="cls-1" d="M231.11,371.62c-4.43,3.32-8.84,6.66-13.13,10.15a2.51,2.51,0,0,0,0,3.54,2.57,2.57,0,0,0,3.53,0c1-.83,2-1.64,3.06-2.45l1.55-1.21.78-.6.46-.36c2.08-1.6,4.18-3.18,6.28-4.75a2.56,2.56,0,0,0,.89-3.42,2.54,2.54,0,0,0-3.42-.9Z" transform="translate(-152.73 -111.15)"/><path class="cls-1" d="M241.22,364c-3.34,2.57-6.73,5.09-10.11,7.61a2.78,2.78,0,0,0-1.15,1.5,2.51,2.51,0,0,0,3.68,2.82c3.37-2.53,6.76-5,10.1-7.61a2.79,2.79,0,0,0,1.15-1.49,2.55,2.55,0,0,0-.25-1.93c-.66-1-2.31-1.75-3.42-.9Z" transform="translate(-152.73 -111.15)"/><path class="cls-1" d="M255.57,351.84c-2.26,2.25-4.65,4.36-7.11,6.4-1.21,1-2.44,2-3.67,3s-2.52,2-3.57,2.79a2.58,2.58,0,0,0-.9,3.42c.66,1,2.32,1.75,3.42.9a159.73,159.73,0,0,0,15.37-12.95,2.5,2.5,0,0,0-3.54-3.54Z" transform="translate(-152.73 -111.15)"/><path class="cls-1" d="M265.61,338a41.75,41.75,0,0,1-4.45,7.5l-.29.39-.19.24-.26.33-.31.39c-.47.58-.95,1.15-1.45,1.71-1,1.12-2,2.21-3.09,3.27a2.5,2.5,0,0,0,3.54,3.54,51.33,51.33,0,0,0,10.81-14.85,2.56,2.56,0,0,0-.89-3.42,2.52,2.52,0,0,0-3.42.9Z" transform="translate(-152.73 -111.15)"/><path class="cls-1" d="M266.28,304.3c1.84,11,4,23.14-.67,33.71a2.57,2.57,0,0,0,.89,3.42,2.52,2.52,0,0,0,3.42-.9c5.28-12,3.28-25.07,1.18-37.56a2.5,2.5,0,1,0-4.82,1.33Z" transform="translate(-152.73 -111.15)"/><path class="cls-1" d="M247.56,126.79c-6,23.4-12.12,47.27-11.49,71.63a94.86,94.86,0,0,0,2.07,18.25,89.91,89.91,0,0,0,5.94,16.82A334.07,334.07,0,0,1,256.88,266a275.64,275.64,0,0,1,9.4,38.34,2.52,2.52,0,0,0,3.07,1.75A2.56,2.56,0,0,0,271.1,303a278,278,0,0,0-20.3-66.64,144.33,144.33,0,0,1-6.49-15.92,73.78,73.78,0,0,1-3-17.19,155.15,155.15,0,0,1,2.12-35.36c2.21-13.41,5.59-26.59,9-39.74.8-3.12-4-4.45-4.83-1.33Z" transform="translate(-152.73 -111.15)"/><path class="cls-1" d="M226.78,464.93a93.29,93.29,0,0,0-4.12,12.43,2.5,2.5,0,0,0,4.82,1.33,91.92,91.92,0,0,1,4.13-12.43,2.51,2.51,0,0,0-1.75-3.08,2.59,2.59,0,0,0-3.08,1.75Z" transform="translate(-152.73 -111.15)"/><path class="cls-1" d="M247.58,427c-2.51,4.7-5.25,9.27-8,13.84a2.5,2.5,0,1,0,4.31,2.52c2.74-4.57,5.48-9.13,8-13.83a2.5,2.5,0,1,0-4.31-2.53Z" transform="translate(-152.73 -111.15)"/><path class="cls-1" d="M250.69,370.18q1.45,2.71,2.68,5.54c.08.17.06.13,0-.1.06.13.11.26.17.4s.18.46.28.69c.18.47.36.94.53,1.41.36,1,.68,1.95,1,2.94a2.5,2.5,0,0,0,4.83-1.32A66.84,66.84,0,0,0,255,367.66a2.52,2.52,0,0,0-3.42-.9,2.56,2.56,0,0,0-.9,3.42Z" transform="translate(-152.73 -111.15)"/><path class="cls-1" d="M228.6,341.44c3.78,4.12,7.52,8.29,11.06,12.63a2.5,2.5,0,0,0,3.53,0,2.56,2.56,0,0,0,0-3.54c-3.54-4.33-7.27-8.51-11.06-12.63a2.51,2.51,0,0,0-3.53,0,2.55,2.55,0,0,0,0,3.54Z" transform="translate(-152.73 -111.15)"/><path class="cls-1" d="M202.08,324.73c6.12.47,11.54,3.21,16.4,6.95a2.5,2.5,0,0,0,3.42-.9,2.56,2.56,0,0,0-.89-3.42,35.35,35.35,0,0,0-18.93-7.63,2.5,2.5,0,0,0,0,5Z" transform="translate(-152.73 -111.15)"/><path class="cls-1" d="M189.74,326.37c1-.33,2-.63,3.08-.88.55-.13,1.11-.25,1.68-.35l.72-.13.48-.08.16,0,.15,0,.48-.05.73-.07c.53,0,1.05-.08,1.58-.1a32.58,32.58,0,0,1,3.28.06,2.51,2.51,0,0,0,2.5-2.5,2.55,2.55,0,0,0-2.5-2.5,36.25,36.25,0,0,0-13.67,1.82,2.5,2.5,0,0,0,1.33,4.82Z" transform="translate(-152.73 -111.15)"/><path class="cls-1" d="M183.88,411.72a64.78,64.78,0,0,1-14.49-14,64.06,64.06,0,0,1-10.09-18.59,29.51,29.51,0,0,1-1.57-10.78,33.31,33.31,0,0,1,2.85-10.85A71,71,0,0,1,171,339.92c5-6.06,11.27-11,18.77-13.55,3-1,1.73-5.86-1.33-4.82-14.8,5-24.91,17.69-31.29,31.45a46.75,46.75,0,0,0-4,11.69,31.8,31.8,0,0,0,.42,12.48c1.71,7.47,5.54,14.6,9.9,20.84a72.55,72.55,0,0,0,17.87,18,2.52,2.52,0,0,0,3.42-.9,2.55,2.55,0,0,0-.89-3.42Z" transform="translate(-152.73 -111.15)"/><path class="cls-1" d="M198.34,418.9A46.34,46.34,0,0,1,191,416a58.23,58.23,0,0,1-7.13-4.24,2.52,2.52,0,0,0-3.42.9,2.56,2.56,0,0,0,.89,3.42A58.17,58.17,0,0,0,197,423.72a2.52,2.52,0,0,0,3.08-1.74,2.56,2.56,0,0,0-1.75-3.08Z" transform="translate(-152.73 -111.15)"/><path class="cls-1" d="M212.46,421.15a50.9,50.9,0,0,1-14.12-2.25,2.5,2.5,0,1,0-1.33,4.82,58.2,58.2,0,0,0,15.45,2.43,2.52,2.52,0,0,0,2.5-2.5,2.55,2.55,0,0,0-2.5-2.5Z" transform="translate(-152.73 -111.15)"/><path class="cls-1" d="M244.11,417.46c-6,1-11.93,2.13-17.94,2.89a2.58,2.58,0,0,0-2.5,2.5,2.51,2.51,0,0,0,2.5,2.5c6.46-.81,12.85-2,19.27-3.07a2.51,2.51,0,0,0,1.74-3.08,2.55,2.55,0,0,0-3.07-1.74Z" transform="translate(-152.73 -111.15)"/><path class="cls-1" d="M266,415.34a142.85,142.85,0,0,0-21.93,2.12,2.52,2.52,0,0,0-1.75,3.07,2.56,2.56,0,0,0,3.08,1.75,134.23,134.23,0,0,1,20.6-1.94c3.22,0,3.22-5,0-5Z" transform="translate(-152.73 -111.15)"/><path class="cls-1" d="M281.4,330.51a28.09,28.09,0,0,1,12.66,13.16c2.86,6.06,4.43,12.8,6.23,19.23q1.48,5.24,2.87,10.5c.94,3.57,2,7.16,2.71,10.8.54,2.84.24,5.39-1.79,7.55s-4.49,3.7-6.47,5.85c-4.41,4.78-7,11.36-12.79,14.76-2.77,1.63-.26,5.95,2.52,4.32,5.85-3.44,8.62-9.36,12.8-14.39,2-2.38,4.45-4.11,6.68-6.22a12.58,12.58,0,0,0,4.3-8.95c.11-3.77-1.21-7.61-2.14-11.22q-1.49-5.75-3.07-11.47c-1.94-7-3.7-14.24-6.51-21a35.76,35.76,0,0,0-6-10,33.3,33.3,0,0,0-9.48-7.27c-2.84-1.51-5.36,2.8-2.52,4.31Z" transform="translate(-152.73 -111.15)"/><path class="cls-1" d="M233.41,332A53.15,53.15,0,0,1,259,325.38c3.22,0,3.22-5,0-5a58.46,58.46,0,0,0-28.14,7.34c-2.81,1.57-.29,5.89,2.52,4.32Z" transform="translate(-152.73 -111.15)"/><path class="cls-1" d="M222.41,340.55a55,55,0,0,1,5.27-4.74c-.39.31.19-.15.32-.24l.68-.5c.49-.36,1-.71,1.51-1.05,1.05-.7,2.12-1.36,3.22-2a2.5,2.5,0,1,0-2.52-4.32,53.74,53.74,0,0,0-12,9.3,2.5,2.5,0,0,0,3.53,3.53Z" transform="translate(-152.73 -111.15)"/><path class="cls-1" d="M228.43,439.15c-6.65-13-11.3-27.07-15.73-40.94-2.24-7-4.16-14.22-4.4-21.62a48.54,48.54,0,0,1,3-18.21,51,51,0,0,1,11.14-17.83c2.23-2.32-1.3-5.86-3.53-3.53a55.75,55.75,0,0,0-15.58,36.24c-.27,7.67,1.31,15.31,3.46,22.63s4.69,14.48,7.24,21.63a200.23,200.23,0,0,0,10.11,24.15c1.47,2.87,5.79.34,4.32-2.52Z" transform="translate(-152.73 -111.15)"/><path class="cls-1" d="M243.58,462.33a155.46,155.46,0,0,1-15.15-23.18c-1.47-2.86-5.79-.34-4.32,2.52a155.61,155.61,0,0,0,15.16,23.19,2.58,2.58,0,0,0,3.42.9,2.53,2.53,0,0,0,.89-3.43Z" transform="translate(-152.73 -111.15)"/><path class="cls-1" d="M255.66,477.55c-4-5.07-8.18-10.15-12.08-15.22a2.56,2.56,0,0,0-3.42-.89c-1,.66-1.75,2.31-.89,3.42,4.21,5.47,8.57,10.81,12.85,16.23a2.51,2.51,0,0,0,3.54,0,2.59,2.59,0,0,0,0-3.54Z" transform="translate(-152.73 -111.15)"/><line class="cls-3" x1="73.3" y1="3.38" x2="73.67" y2="3.72"/><line class="cls-4" x1="74.46" y1="4.44" x2="81.98" y2="11.28"/><polyline class="cls-3" points="82.37 11.64 82.74 11.98 83.14 11.68"/><line class="cls-5" x1="83.95" y1="11.05" x2="96.58" y2="1.32"/><polyline class="cls-3" points="96.99 1 97.39 0.7 97.7 1.09"/><line class="cls-6" x1="98.33" y1="1.9" x2="105.67" y2="11.19"/><polyline class="cls-3" points="105.99 11.59 106.3 11.98 106.72 11.71"/><line class="cls-7" x1="107.57" y1="11.14" x2="122.49" y2="1.26"/><line class="cls-3" x1="122.91" y1="0.97" x2="123.33" y2="0.7"/><line class="cls-3" x1="71.76" y1="531.03" x2="72.23" y2="531.2"/><line class="cls-8" x1="73.19" y1="531.56" x2="88.07" y2="537.12"/><polyline class="cls-3" points="88.55 537.3 89.02 537.47 89.39 537.13"/><line class="cls-9" x1="90.08" y1="536.49" x2="99.41" y2="527.86"/><polyline class="cls-3" points="99.75 527.54 100.12 527.2 100.53 527.48"/><line class="cls-10" x1="101.39" y1="528.07" x2="111.28" y2="534.75"/><polyline class="cls-3" points="111.71 535.04 112.12 535.32 112.34 534.88"/><line class="cls-11" x1="112.73" y1="534.07" x2="115.66" y2="528.05"/><line class="cls-3" x1="115.86" y1="527.65" x2="116.08" y2="527.2"/></svg>